/* XPM */
static char *_52c36aa5b89410aaac2be6f6fa3f407fsYDVQ8IUBLoNRj8[] = {
/* columns rows colors chars-per-pixel */
"64 64 255 2 ",
"   c #11070B",
".  c #1C1C15",
"X  c #1F1F1F",
"o  c #2A0103",
"O  c #390107",
"+  c #320318",
"@  c #26261E",
"#  c #36361C",
"$  c #071C36",
"%  c #320332",
"&  c #2D2D2A",
"*  c gray21",
"=  c #3B3B3B",
"-  c #470108",
";  c #570105",
":  c #450317",
">  c #570218",
",  c #4B1613",
"<  c #660304",
"1  c #770306",
"2  c #650418",
"3  c #770416",
"4  c #6A1410",
"5  c #5D2110",
"6  c #733216",
"7  c #4B0D2D",
"8  c #590626",
"9  c #5C0C36",
"0  c #5A183A",
"q  c #660727",
"w  c #770A29",
"e  c #66142A",
"r  c #6A1137",
"t  c #532534",
"y  c #742A2F",
"u  c #55551F",
"i  c #764617",
"p  c #75751E",
"a  c #55552F",
"s  c #47473A",
"d  c #764C2D",
"f  c #716F35",
"g  c #37084E",
"h  c #230E59",
"j  c #2E096A",
"k  c #531447",
"l  c #6C1547",
"z  c #4F3153",
"x  c #6A304E",
"c  c #531C6A",
"v  c #533769",
"b  c #6F316A",
"n  c #344476",
"m  c #474747",
"M  c #494947",
"N  c #4D4D4D",
"B  c #56564A",
"V  c #555555",
"C  c #5A5A56",
"Z  c #52505C",
"A  c #5F5F5F",
"S  c #5D605B",
"D  c #6E6D4A",
"F  c #65655C",
"G  c #50516F",
"H  c #735070",
"J  c #506A6E",
"K  c #676767",
"L  c #696967",
"P  c #6B6B6B",
"I  c #726E72",
"U  c #737373",
"Y  c #7B7B73",
"T  c #7B7B7B",
"R  c #870205",
"E  c #990503",
"W  c #8D1015",
"Q  c #A90304",
"!  c #8E2F0A",
"~  c #B12B01",
"^  c #8B0F29",
"/  c #AB1425",
"(  c #892D2E",
")  c #A4332C",
"_  c #C80304",
"`  c #C23302",
"'  c #8B4D1A",
"]  c #A96B0F",
"[  c #8B502D",
"{  c #9D6527",
"}  c #D25E07",
"|  c #CB7306",
" . c #91364D",
".. c #8B4B51",
"X. c #9A5B54",
"o. c #876958",
"O. c #B06F46",
"+. c #916D6C",
"@. c #5DA275",
"#. c #71A577",
"$. c #8F8E1A",
"%. c #AF8A1C",
"&. c #928E35",
"*. c #AC8930",
"=. c #A6A62D",
"-. c #B3B238",
";. c #D2A00E",
":. c #C3B32D",
">. c #BFC12B",
",. c #D9E41D",
"<. c #F8FD17",
"1. c #D2D038",
"2. c #96924E",
"3. c #B2B350",
"4. c #8B8B6E",
"5. c #B09C64",
"6. c #C7914C",
"7. c #C6B24F",
"8. c #C9B962",
"9. c #9EE262",
"0. c #CBCA50",
"q. c #E7D24B",
"w. c #EDF14F",
"e. c #C5C667",
"r. c #CFD172",
"t. c #D8E667",
"y. c #E6F072",
"u. c #151B9E",
"i. c #380E89",
"p. c #325495",
"a. c #205CB5",
"s. c #564C99",
"d. c #55688A",
"f. c #686D88",
"g. c #495DA6",
"h. c #4E73A9",
"j. c #7967A8",
"k. c #1335E9",
"l. c #0956D5",
"z. c #096CF7",
"x. c #802E9B",
"c. c #8472A0",
"v. c #3BA599",
"b. c #4F9491",
"n. c #6A8E86",
"m. c #51AB91",
"M. c #71AA95",
"N. c #6986AB",
"B. c #54B2B1",
"V. c #71B4B0",
"C. c #5BD39B",
"Z. c #55CFB1",
"A. c #6ACEB1",
"S. c #69DAB4",
"D. c #76D5BA",
"F. c #7DDCBC",
"G. c #66E0AF",
"H. c #6AE1B3",
"J. c #77E3B8",
"K. c #1699D9",
"L. c #2DACCF",
"P. c #1891F1",
"I. c #289AEB",
"U. c #0DADF0",
"Y. c #599BD7",
"T. c #4EB5CD",
"R. c #6EB6CF",
"E. c #1EDFEE",
"W. c #35D2EB",
"Q. c #30F1F9",
"!. c #4FCFC9",
"~. c #56DADA",
"^. c #6FCFCA",
"/. c #68DBC8",
"(. c #65DBD6",
"). c #56E7C7",
"_. c #58E6D8",
"`. c #4CF2D9",
"'. c #67EDCF",
"]. c #7BE5C8",
"[. c #66E9D6",
"{. c #77E9D6",
"}. c #76F4DA",
"|. c #47D1ED",
" X c #65DAE2",
".X c #57FAE9",
"XX c #4CEEF3",
"oX c #58FBF5",
"OX c #71E9E6",
"+X c #69F5E8",
"@X c #76F9E8",
"#X c #67FEFA",
"$X c #75FEF9",
"%X c #838383",
"&X c #8C8C83",
"*X c gray56",
"=X c #97978B",
"-X c #8D9395",
";X c #999990",
":X c #9B9B9B",
">X c #B09887",
",X c #8BAC95",
"<X c #A7A78E",
"1X c #B7B78D",
"2X c #A8A79A",
"3X c #B8B899",
"4X c #80B6A3",
"5X c #AEAEA1",
"6X c #ABABAB",
"7X c #B8B8AB",
"8X c #B7B7B7",
"9X c #BDBCB7",
"0X c #D1BD90",
"qX c #BCCE8F",
"wX c #8CCDB2",
"eX c #87D9B8",
"rX c #85DCBB",
"tX c #8FE5B7",
"yX c #85E2BD",
"uX c #8BE2BC",
"iX c #A8E3AA",
"pX c #C6C78B",
"aX c #D2D290",
"sX c #D6D794",
"dX c #E2DB95",
"fX c #E8E990",
"gX c #E2E19C",
"hX c #C8C9A9",
"jX c #D4D5AA",
"kX c #CDCFB3",
"lX c #D7EEB2",
"zX c #EAECAB",
"xX c #87BACD",
"cX c #83DDC5",
"vX c #97D6C3",
"bX c #86E3C2",
"nX c #8AE6C2",
"mX c #8BE9C4",
"MX c #86EACA",
"NX c #8EF2CC",
"BX c #ABEFC9",
"VX c #8EF7ED",
"CX c #84FEFA",
"ZX c #A3FFE9",
"AX c gray78",
"SX c #C9C9C7",
"DX c #C7DDCC",
"FX c #D3D3D3",
"GX c #DDDAD3",
"HX c #DFDFDF",
"JX c #DBE3C5",
"KX c #E7E7D8",
"LX c #E0E1E0",
"PX c #EFEFEF",
"IX c #F5F4EF",
/* pixels */
"= X = X = X = X = X = X = X = X = X = X = X = X = X = X = X = X = X = X = X = X = X = X = X = X = X = X = X = X = X = X = X = X ",
"N C V V N V N V N V m m m m m m m m m m X V %X6XAX8XFXAXFXFXAXFX8X6X%X= X HXHXHXFXHXFXHXHXHXFXHXFXHXHXHXFXM V V N V N Z N C V C ",
"m M m m m N m m N K P T *X*X*X%X*X*XP = X = N 6X4.*X-X*X*X%X6X*X8XAX%X= X *XAXFXFX8XFXFXAXFXFXFX8XFXAXFXHXm V C V V V V V V C V ",
"*X*X*X%X*X*X*X%X*X6X8X8XHXFXHXHXHXFX*X= X = C %X6X*X5Xc.6X*X6X*X6XFX6X= X A *XFX8X8XAXAX8XAXAX8XFX8XAXAXHXm V X *X%X*X*X*Xn.*X*X",
"FXAXFXFXFXAXFXHXFXHXHXHXFX8XAX8XHXHX%X= X = N U -Xn.6X6X6X6X%X*X*X8X*X= X V T 6X6X:X6X6X6X6X*X6X:X6X6XFXLXm C X %X=X6X8XFXFXFXFX",
":X*X6X%X6X*X6X*X*X:X6X6X*X6X*X6X8XFX*X= X = V V P 6X*X:X*X%X6X6X*X6Xm = X V P 6X6X%X6X*X6X:X6X6X6X6X:X8XPXm V X U f.6X:X6X6X6X6X",
":X*X:X6X*X:X*X%X6X*X*X%X:X%X6X*X8XHX%X= X = = = I 6Xc.6X6X*X6X%X*XT m = X N *X6X*X*X:X:X:X*X6X*X6Xc.5XFXPXm M X P +.*X6X;X;X:X8X",
":X6XT *X6X6X%X6X*XT :X6XT :X%X6X6XHX*X= X = = = I 6X4.=X*X:X6X6X*Xm m = X V A *X6X*X*XT *X:X6X6X*X:X&XSXPXm = X V A :X4.9Xc.6X8X",
"-XU 6X6X#.*X*X6X*X:XU :X%X%X6X*XHXHXI = = X X = = = = = = = = #.m V N X X V P 6X*X*X:X%X:X*X6X%X6X:X6X8XAXM X X N m U :X-X6X6X:X",
"-X6X+.6X6X*X6X-X%X:X:X;X*X*X*X*XAXAXm m m X X X = X = t = = = t = m = X X T V %X6X%X*X*X*X*X*X*X6X:X6XPX6Xm = X m m V U *Xn.*X*X",
"A K A K A F 4.o.Y ;X=X<X7X=X7X*X6XAXm V N X = X = X @ X X X X X = m = X = Z H 6X*X6X%X6X*X*XT *X*X6X*XFX*X* . X = = N V U U L I ",
"N m m B 2.7.*.7.7.7.7.7.6.7.8.e.3XhXN V = I :X6X6X:X6X*Xf.I N N m m = X * K P *X+.n.*X:X6XT T T :X&X7XLXY & & X X X X m m M V V ",
"X = X f pXw r r r 9 q q e 9 q e O.gX2.D . B U :XFXFXFXIXHXFX6X6XU B f # = B *X6X-X#.6X*X&X2X7X3XaXpX0XGX3.&.f u s X = X X X X X ",
"X X @ p 8.> l b b x.j.c.c.c.j.b q 8 pX&.# B #.4.9X5X7X&X9XFXLX9X7XD 4.D a F #.&X:X2X;X2XjXsX6.O.( y  .( q , O.1.p s X X = X = X ",
"= * s 3.:.8 $ z.[.bXcXOX{.OX(._.U.k 2 t.{ &.e.sXsXdXaXaXqXhXAXHX7X&.-.>.-.e.0.sXkX>X5.sXzX! k h. XOXoXOX.Xp.k ; q.=.s # = = = = ",
"= m f e.-.3 i._.nXwX#.n.,X,XM.uX{.W.7 ) ,.4X) q 4 q y X.O.hXzXIXjXr.<Xy 8 e k ( O.dXgXlXx l.OXOXxXR.R.T.Z.L.Q.z.  o.1.a * = M V ",
":X:X3XpXf > s.{.vXH 8 2 w w q #.vXOXk.y 4 r e v d.N.R.G x 8 ..DX+.q e x J h.g.d.x y BX4.k XXVXnXmXmXvXmXF.v._.oXL.t { sX5X*X:X:X",
"FXLXKXhXt < d.[.eXJ G z z x x f.tX`.E.7 - 7 u.K.W. X|.|.I.p.q y w 8 7 p.XXW.+XXXU.0 W r T.ZXeXnXmXmXmXmXJ.G.^.A.oXY.4 zXGXFXSXFX",
"8X8XjX5.0 q T./.D.!.+X[.}.{.{.D.A.|.s.1 % Q._.NXmXmXcXbXBXCX^.8 2 a.Q.NXH.].nXVX]..X> j P.$XrXbXmXMXeXnXJ.G.J.D.!.|.N.] jX<X:X6X",
":X5Xr.2.e > B.].yXyXF.]./.rXcXMXoXq E  .`.{.nXnXmXcXmXnXwXvX:X8 s.H.MXwX: 8 8 9 P _.VX1 > L.$X$X@X^ < F.H.H.yXmXB.!.|.( sX2X*X6X",
"%X<Xr.d q r !.).yXrXeXyXmXMXMX+Xl R 1 }.}.vXbXnX!.(.wXnXmXeXl g @XyXyXV.8 Z x x x d.#X$Xy i 1 ^ 8 + 7 OXS.H.nXnX/.~. Xy zX<X*X5X",
":X3Xr.6 O f.^.D.rXm.z + a BX,Xq < W x VXJ.bXyXrX+X^.^ I '.V.9 p.}.yXD.Z.b.k 9 f.f.l {.#XMX1 t Z J n |./.H.J.mXmXcX X~.4 aX7X*X6X",
"*X1X8.e - -XF.bXyXn., % : < E ^ e > X.vXJ.J.nX4X$Xd < M.CXf.k uXbXmXbXB.Z.V.x k 9 H V.cX].% Q.oX+X{.yXyXH.J.yXyX^.@X|.< 2.5.6X*X",
"*X1X8.: W ^.J.yXyXA..XoXQ.L.k.+.E - vXtXG.G.G.m.!.t - ).).7 t Z.G.H.G.S.!.B.+X^.V.!.~.D.+.u.#XvXyXuXmXJ.S.J.mXcX_.XXr 6 0.0Xn.*X",
"*XkX8.+ R eXnXbXtXtXyXmXbXmXE.x.Q O BXNXJ.J.uXnX!.L.L.J.NXr u.Q.$X].{./.G.S.S.Z.Z.A.+X].b g _.MXuXmXmXyX).Z.F.^.#Xd.o l r.hX-X&X",
"&Xy.{ + W mXbXbXnXmXmXyXnXnX.Xv R W ).NXJ.J.eXmXV.B.Z.D.mX> 8 I.h.m.A.~.).yXyXZ.H.uX].^.l ) _.bXmXmXD.eX_.)./.#XY.O , w.gX=X6X,X",
"D q.d + +.MXbXF.Z.`.~.yXmXnX].0 2 W j $XJ.J.mXtXuXeXrXcX^. .q 3 > w ^ y @.(.nXG.S.uX{.B.^ <X.X].mXF.MXA.M.C.!.+X4 - { <.r.5.K K ",
"@.1.+ > -X].yXF.P.  i.|.mXbXbXH 2 < ; P.NXeXbXmXmXnXD.rXR.CX>XQ ( q 2 E 3 MX/.Z.S.cX+XM.k j.+X{.uX[.xX! 1 o ; < 1 - > } -.0.D B ",
"$.;.: 3 4XNXbXB.h E _ 7 Y.MXnX(.0 E W 2 I.oXiXmXmXtXnXNXZX-X^ /  .w q q .XmXcXZ.S.F..XJ % U.ZXrXnX#XQ < K.E.v.E.k.p.@.l.; ;.:.u ",
":.i - 2 wX^.[.G k ;.E : p..XrX].f.) E ( 9 a.|.(.{.@XNXtX..W ^  .^ ^ r W.mXeXnXG.A.D.[.f.+ l.].uXnX@X: u.Q..X`.oXQ.!.v.W.p.5 { -.",
"0.e + 1 MXbXXXk < ;.4 < ..CXuXMXN.y w.` 1 o j j i.i.q 3 1 ^ ) ) 3 3 |.MXuXcXbXS.A.eX+XM.+ K.F.].mXV.W.E.(.C.Z.).H.!.T.Z.XXn 4 r.",
"q.7 - ( mXmX_.0 < ] y W / CX4X#.t 8 zXy.' > ; < R R < 1 e y ) w R L.mXmXyXnXbXZ.Z.cX@XD 8 U.BXD.bXD.{.MXbXZ.S.nXyXyX^.B.+Xn.W 0.",
"1.O - 4.mXcX^.7 - %.i y ^ ; O ; ; > { zXy.;.%.| ` ] ;.,.< 8 w < I.NXtXeXmXbXS._.oXXXVXQ + z.tXBXbXmXtXmXyXG.H.bXnX].!.C.Q.f.~ q.",
"2.> O 4.mXD.(.0 ; t.6 o ; < ~ R E ~ gXJXpX0.,.9.9.1.w.lX9.;.3 + z.Q.+X.X}.XX$X+XT.o.h + } % z.`.iXeXD.A.S.Z.J.mXnXD.N.Z.XXZ ! t.",
"*.: O A.mXA.B.e < fX{ ' &.e.r.e.0.e.hXFX=Xf p &.3.3.hXpXDXqX,._ 1 j u.a.g.G Z x / - $ <.<.~ % k.Q.`.`.+X~.!.)._.{.!.!.$XY.4 [ e.",
"6 - < rX].D.v 8 ! fXdXe.zX3.=.3.3.kX<XFX*Xm . @ s J *X=X<XjXfXw.q._ E 2 > W 4 4 ,   <.w.fX8.1 + u.a.b.S.!.A.B.#X[.T.Y.#X1 6 gX4.",
"5 ; 3 wXJ.D.9 > ' dX<XhX9Xs s s m B #.6XT m @ X = V K -Xn.7X<XhXpXjXfXw.zXaX6.3.$.$.3.4.1XaX0.} W 2 ; 4 2 y ( t t c l 4 ] 5.KXY ",
"5 O , /.].D.8 9 ] 3.B N U X m z = = = * Z = & X = = = = M z V A L T >X7X9X>XD a . X C I 6X=X1XsXe.O.( W - O O - - 4 i { o.aXKXK ",
"- O C CX'.B.> t ;.p X X X C V C V N z m N m @ X X X X X X X X = m C A *X*Xm Z * . X C P &Xn.6X7Xr.fXr.6.{ u ' u &.%.8.r.pXhXKXK ",
"O > > 7 7 : > o =.f M z m m m m M m m C V m = X = X X = X = X X X X = X = m N X X X N L 6X*X%X6X2X7XKX>X$.0.t.fXaXjXpX<X<X8XFXK ",
"O e 2 > > > O 6 e.&XT T T T T T T T T V V m m N m N N t N M m = = = = = m m m = X X V K %X6X*X*X,X-XPXV & D 7X<X7X:Xn.6X6X8XHXL ",
"0.-.0.0X5.>XhXzXkXAX8X8XAX8XAX8XAX6X8X6X:X*X*X*XT T T T T #.T T T T T T T K t X X X V P 6X*XT %X*X6XPXm @ C P *X6X4.6X*X*X6XHXL ",
"B # #.<XKXKXLXKXPXPXPXPXPXPXPXPXPXPXPXHXHXFX8XAX8XAX8XAX8XAXAX8XAX8XAX8XAXT = X X = S J %X*X*X6X*X:XPXV X X V 6X*X6X*X6X6X8XAXL ",
"M X N T 7XAX8X8XAX8X6X8XAX8X8X8XFXFXLXHXPXPXPXPXPXHXPXPXHXHXPXPXPXPXPXAXAXT X X X = N L 6X%X:XT 6X*XPXt = X C n.6X6X*X6X*X8XFXK ",
"= = C P 6X*X6X%X6X*X*X%X6X*X6X*X*X:X:X6X6X8X8XAX8X6XAX8X6XSX8XSX8XAX8XAXAXT X X X = V A *X*X6X%X6X6XHXm = X N -X*X&X6X*X6X7X7XL ",
"= X V P *X:X6X6X*X6X%X:X6X6X%X:XT *X6X6X6X:X*X*X6X5X%X6X*X*X*X%X*X*X8XHX8XK X X X = C P *X6X%X6X*X%XFXm = X V U P U %X6X*Xc.AXN ",
"= = V P 6X*X6X%X6X*X:X:Xn.+.*X*X:X*X:X%X6X6X:X*Xc.5X:X-X:X*X6X*X*X*X8XHXAXm X X X = V U %X*X6X*X%X6X8Xm t X . V C C *X:X6X6X8Xm ",
"= X V U *X*X:XT *XI T -X6X-X%X6X*X%XT :X6X%X:X*X6Xn.*X+.*X*X*X%X6X6XFXHX8XX X X X = V K P *X*X%X6X:X:X= = = X V V C V C T T T m ",
"= X V L %XU -X6X%X*X*XT *X%X6X*X*X6X*X6X%X:X:XT T *X6X*X%X6X*X6X%X*XFXFX6X= X X X = V V K A K K A K T N = = X C Z V V X X X = m ",
"= X V P +.n.*X*XT *X6X%X*X*X*XT *X%X6XT :X*X:XT :X%X*XT 6Xn.6X*X*X6X8XFX*XX X X X = * = = = = = = = = = = = = X X X X = m V V V ",
"= X C P :X*X*X*X%X6X*X*X6X%X6X*X*XT =X=X%XT *X%X6X6X*X6XP U U P U U P :X%X= X X X X X X X X X X X X = = m = X X = m N m m m M m ",
"= X N K T T T T T T T T T T T T T T T f.T T T *XT P I C X = X = X = = m V = X = X = X X = X X = X X = = V N N K *X*X6X6X6X6XT m ",
"= = X V V V C V V V V V V V V N N V V V V V V V V V N X = = = = = = m m V = = = = = = = = = = = N V A P *X6X6X8XHXHXFXHXFXAX6Xm ",
"= = X X X X X X X X X X X X X = X = X = X = X = X = X = = m = m m m C N K K P T T %X*X*X:X6X6X6X6X6X6X6X8XHXHXHXFX8X*X6X6XFX6Xm ",
"N m = = = X = X = X = X = X = X = X X = = = = = = = = = m V N 4.6X6X6X6X6X8XAXFXAXHXHXHXHXFXHXFXHXFXHXHXHX8X6X*X6X8X6X6X6XLX6Xm ",
"Z N m = = = = = = = = = = = = = = = = = = X = = = m m m N m = c.8XFXFXHXFXAX6X6X6X*X6X%X6X6X*X6X*X6X%X6XT *X:X6XT T 6X%X6XLX6Xm ",
"V V Z N m m = m m = m m m z m m V V N m N N T :XHXFX6XN N = X K T 6X6X6X*X6X%X6X*Xf.=XT 6X*XU T 6X*X%X6X:X*X*X*X6X*X6X6X6XAX6Xm ",
"V m N +.:X6XAXFXFXLXHXHXFXHXHX7XN V V 8XFXHXHXHX6X6XHXm m = X N K :X6X6X%X6X*X6X*X6X%X:XT *XT 6XT %X:X6X6X%X6X:XT T 6X%X6XAX6Xm ",
"V X :XFX6X*X6X:X6X%X6X-X6X6X:XHXT V A 8X8X8X6X8X6X8XFXm = X = V V K A K A K A K A K K A L K K A K K A K A K K A K A K A K %X6Xm ",
"V X C 6Xn.6X*X6X%X6X6X6X#.6X-X6X8Xm K %X:XA :X8X8X6X8XN X X = = = = = = = = = = = = = = = = * = = = = = = = = = = = = = = K *Xm ",
"V X N -X*X6X:X:X6X:X*X6X6X:X:X:XHXm A K K A K N = m = N X X X X X X X X X X X X X X X X X X X X X X X X X X X X X X X X X X = m ",
"V X C N V V V V N V V V Z N Z V V = X X X X X = = V V = X = X = X X = X X = X X = X X = X X = X = X X = X X = X X = X = = = m V ",
"V X X X X X X X X X X X X X X V N = = = = = = V V V N = = = = = = = = = = = = = = = = = = = = = = = = = N M m M N m m m V N V V ",
"= = = = = = = = = = = = = = = t = = = = = = = = = = = = = = = = = = = = = = = = = = = = = = = = = = = = = = = = = = = = = = = = "
};
