/* XPM */
static char *_78da4536bd4429b93f8ceb0e5c3cc72Nzmzn1FJIIlvSqyS[] = {
/* columns rows colors chars-per-pixel */
"64 64 256 2 ",
"   c #1F1F1F",
".  c #1C1C15",
"X  c #11070B",
"o  c #2A0103",
"O  c #390107",
"+  c #3A0416",
"@  c #25011B",
"#  c #26261E",
"$  c #36361C",
"%  c #320332",
"&  c #3B3B3B",
"*  c gray21",
"=  c #2D2D2A",
"-  c #071C36",
";  c #470108",
":  c #570105",
">  c #450317",
",  c #570218",
"<  c #4B1613",
"1  c #640101",
"2  c #670506",
"3  c #770306",
"4  c #650418",
"5  c #770416",
"6  c #6A1410",
"7  c #733216",
"8  c #590626",
"9  c #5C0C36",
"0  c #5A183A",
"q  c #4B0D2D",
"w  c #660727",
"e  c #770A29",
"r  c #66142A",
"t  c #6A1137",
"y  c #532534",
"u  c #792638",
"i  c #712C2A",
"p  c #5D2110",
"a  c #764617",
"s  c #75751E",
"d  c #47473A",
"f  c #55552F",
"g  c #764C2D",
"h  c #716F35",
"j  c #55551F",
"k  c #37084E",
"l  c #2E096A",
"z  c #230E59",
"x  c #531447",
"c  c #6C1547",
"v  c #4F3153",
"b  c #6A304E",
"n  c #533769",
"m  c #6F316A",
"M  c #531C6A",
"N  c #344476",
"B  c #474747",
"V  c #4D4D4D",
"C  c #494947",
"Z  c #56564A",
"A  c #555555",
"S  c #5F5F5F",
"D  c #5A5A56",
"F  c #52505C",
"G  c #686847",
"H  c #65655C",
"J  c #73714D",
"K  c #50516F",
"L  c #735070",
"P  c #506A6E",
"I  c #676767",
"U  c #6B6B6B",
"Y  c #7B7B7B",
"T  c #747473",
"R  c #726E72",
"E  c #5D605B",
"W  c #870205",
"Q  c #990503",
"!  c #8D1015",
"~  c #AB0300",
"^  c #A40312",
"/  c #B12B01",
"(  c #8B0F29",
")  c #AB1425",
"_  c #892D2E",
"`  c #A4332C",
"'  c #8E2F0A",
"]  c #C80304",
"[  c #C23302",
"{  c #8B4D1A",
"}  c #A96B0F",
"|  c #8B502D",
" . c #9D6527",
".. c #CB7306",
"X. c #D25E07",
"o. c #91364D",
"O. c #80184E",
"+. c #8B4B51",
"@. c #876958",
"#. c #916D6C",
"$. c #A7674B",
"%. c #71A577",
"&. c #5DA275",
"*. c #8F8E1A",
"=. c #AF8A1C",
"-. c #928E35",
";. c #AC8930",
":. c #B3B238",
">. c #A6A62D",
",. c #C3B32D",
"<. c #D2A00E",
"1. c #BFC12B",
"2. c #F8FD17",
"3. c #D2D038",
"4. c #D9E41D",
"5. c #96924E",
"6. c #B2B350",
"7. c #8B8B6E",
"8. c #B09C64",
"9. c #C7914C",
"0. c #C6B24F",
"q. c #C9B962",
"w. c #9EE262",
"e. c #CBCA50",
"r. c #EDF14F",
"t. c #C5C667",
"y. c #CFD172",
"u. c #E6F072",
"i. c #DDDF5E",
"p. c #1F1798",
"a. c #4C3E8B",
"s. c #325495",
"d. c #205CB5",
"f. c #55688A",
"g. c #686D88",
"h. c #4E73A9",
"j. c #7967A8",
"k. c #564C99",
"l. c #1335E9",
"z. c #096CF7",
"x. c #0956D5",
"c. c #467CC1",
"v. c #8472A0",
"b. c #802E9B",
"n. c #3BA599",
"m. c #6A8E86",
"M. c #51AB91",
"N. c #71AA95",
"B. c #6986AB",
"V. c #54B2B1",
"C. c #71B4B0",
"Z. c #4F9491",
"A. c #55CFB1",
"S. c #69DAB4",
"D. c #7DDCBC",
"F. c #76D5BA",
"G. c #6ACEB1",
"H. c #6AE1B3",
"J. c #77E3B8",
"K. c #66E0AF",
"L. c #5BD39B",
"P. c #1699D9",
"I. c #2DACCF",
"U. c #1891F1",
"Y. c #1FA0EC",
"T. c #4EB5CD",
"R. c #6EB6CF",
"E. c #599BD7",
"W. c #35D2EB",
"Q. c #30F1F9",
"!. c #1EDFEE",
"~. c #56D7C7",
"^. c #56DADA",
"/. c #4CCCC9",
"(. c #68DBC8",
"). c #65DBD6",
"_. c #6FCFCA",
"`. c #56E7C7",
"'. c #58E6D8",
"]. c #4CF2D9",
"[. c #7BE5C8",
"{. c #66E9D6",
"}. c #77E9D6",
"|. c #76F4DA",
" X c #67EDCF",
".X c #47D1ED",
"XX c #53EBE9",
"oX c #57FAE9",
"OX c #49FBFD",
"+X c #58FBF5",
"@X c #49EAF3",
"#X c #69F5E8",
"$X c #76F9E8",
"%X c #67FEFA",
"&X c #75FEF9",
"*X c #71E9E6",
"=X c #65DAE2",
"-X c #838383",
";X c gray56",
":X c #8C8C83",
">X c #97978B",
",X c #9B9B9B",
"<X c #999990",
"1X c #8D9395",
"2X c #B09887",
"3X c #8BAC95",
"4X c #A7A78E",
"5X c #B7B78D",
"6X c #A8A79A",
"7X c #B8B899",
"8X c #ABABAB",
"9X c #AEAEA1",
"0X c #B8B8AB",
"qX c #B7B7B7",
"wX c #BDBCB7",
"eX c #80B6A3",
"rX c #D1BD90",
"tX c #BCCE8F",
"yX c #85DCBB",
"uX c #87D9B8",
"iX c #8CCDB2",
"pX c #85E2BD",
"aX c #8BE2BC",
"sX c #8FE5B7",
"dX c #A8E3AA",
"fX c #C6C78B",
"gX c #D6D794",
"hX c #D2D290",
"jX c #E2DB95",
"kX c #E8E990",
"lX c #C8C9A9",
"zX c #D4D5AA",
"xX c #CDCFB3",
"cX c #D7EEB2",
"vX c #EAECAB",
"bX c #E2E19C",
"nX c #87BACD",
"mX c #83DDC5",
"MX c #97D6C3",
"NX c #86E3C2",
"BX c #8AE6C2",
"VX c #8BE9C4",
"CX c #86EACA",
"ZX c #8EF2CC",
"AX c #84FEFA",
"SX c #8EF7ED",
"DX c #A9F3D1",
"FX c #D3D3D3",
"GX c #DFDFDF",
"HX c #DDDAD3",
"JX c #C7C7C7",
"KX c #E7E7D8",
"LX c #EFEFEF",
"PX c #E0E1E0",
"IX c #F5F4EF",
"UX c #DBE3C5",
/* pixels */
"  &   &   &   &   &   &   &   &   &   &   &   &   &   & . & # &   &   *   y   &   &   &   &   &   &   &   &   &   &   &   &   & ",
"A A D V A V D V D V C FXGXGXGXFXGXFXGXGXGXFXGXFXGXGXGX  y v.9XqXFXJXFXFXJXFXqXJX8X-XA   C C B B B B B B B B A V A V A V D F A V ",
"A A A A D A A A D A B GXFXJXFXqXFXFXFXJXFXFXqXFXFXJX;X  & m.JXqX1X8X%.;X;X;X1Xm.8XV &   & U ;X;X-X;X;X;XY U I B C B V B B B V B ",
";X;X-X;X>X>Xg.;X  F V GXJXJXqXFXqXJXJXqXJXJXqXqXFX;XS   & 8XFX8X1X8X;X8Xv.8X;X8X-XA &   & 1XFXGXGXGXFXGXqXqX8X;X-X;X;X;X-X;X;X;X",
"FXFXFXFXqX8X;X-X  A B PXFX8X8X,X8X;X8X8X8X8X,X8X8XY A   & ;XqX;X;X-X8X8X9X8X-X;XT V &   y m.GXGXqXJXqXFXGXGXGXFXGXFXJXFXFXFXJXFX",
"8X8X8X8X,X8XY T   A B LXqX,X8X8X8X8X,X8X;X8X-X8X8XU A   & B 8X;X8X8X-X;X<X;X8XU A A &   & ;XFXqX8X;X8X;X8X8X,X;X;X8X;X8X-X8X;X,X",
"qX,X,X,X8X;XY U   V B LXFX8Xv.9X;X8X1X,X,X,X;X;X8X;XV   & B Y ;X-X8X;X8X8X-X8XT & & &   & -XGXqX;X8X-X,X-X;X;X8X-X;X,X;X8X,X;X,X",
"qX8X-XqX-X,XS A   & B LXJX;X,X:X8X8X,X1X#.;X;X8X;XS A   & B B ;X8X8X,X;X;X;X8XU & & &   & 1XGX8X8X-X,XY 8X,XY ;X8X-X8X8X;XY 8X,X",
",X8X8X;X,XT B V     V JXqX8X,X8Xv.9X;X,X%.,X;X;X8XI A     C A B #.& & & & & & & &     & & T GXGX;X8X-X-X,XT ,X:X8X;X1XY 8X8XR ;X",
"v.;X%.1XT A B B   & B 8XLX8X,X8X;X;X;X;X;X;X-X8Xv.F %.    & B & & & & & & &   &       B B B JXJX;X;X;X;X,X,X,Xv.;X8X1X8X8X%.8X;X",
"T U T T V V & &   . * ;XFX;X8X;X;XY ;X1X8Xv.6X;X6XU D &   & B &               &   &   V A B JX8X<X0X>X0X4X>X<X7.7.7.J E I S I S ",
"Z D B B B       # = = Y PX0X:X,XY Y Y 8X,X;X#.m.;XU I *   & B B V V R m.;X8X,X8X8X,XT & V A wX5Xt.q.9.,.0.0.0.q.0. .0.5.G C C v ",
"          y   d j h >.6.UXrXq.hXtX0X6X7.1X8X#.>X9X;XZ y $ h Z Y 8X8XFXGXLXFXHXFX,XU A   G 5.jX9.r w w 9 9 w 9 c t u e fXh   &   ",
"  &   &     C s ,.$.< r u o.u o.$.9.gXxX4X>X9X>X:XY H f J 7.J 8XwXKXGXwX:X0X9X0X:X7.Z $ -.rXw 8 m j.v.v.v.v.k.O.m c , t.s       ",
"& & & * & f :.3.+ k s.oX*X+X*X).h.x _ cXgX8.5XzXhXe.t.:.1.:.5.0XHXJXlXfXhXhXhXjXgXq.5.*.e.4 x P.XX=X*X}.*XmXuX{.z.- , :.>.d & & ",
"A V & * f ,.@.@ P.].I./.T.R.R.nX*X*Xx.i cXvXkX$.b c 0 < _ 7.y.bXIXvXhX$.$.u w 4 w | 3X4.` x W.{.uXN.3X3X-X%.iXsXXXl , :.y.G d v ",
",X,X:X6XhX .y I.+X^.n.[.BXCXVXBXVXSX@Xx 7.DXu b k.h.h.P b r w #.FX+.w c f.C.B.f.n r t 7 ( x.*XVX7.w w e 4 8 L MX|.a., h fX7X,X,X",
"FXJXHXKXvX6 B.+XF.G.H.[.BXBXVXpXpXpXSXT.O.! 0 P.@X+XW.@Xs.q 4 u u 8 s.Y..X.XXX.XP.p.q < q !. XuXg.b b m v n P yX'.f., y zXKXKXFX",
"8X,X<XzX;.B.Q./.F.J.K.J.BXuXCXVXpXD.&XY.l 8 oX(.ZXCXD.H.ZXQ.d., , =XAXDXmXuXVXVX[.#XQ.% 5 k..XG.F.}. X}. X#X/.F.(.T.w r 9.zXqXqX",
"8X;X6XgX7 E.^.V.VXpXK.H.D.3 e SXAX&XI.: W $XXXU w 8 , > iXCXH.k.4 v.MXuXBXBXmXmXpXpX}.oXb W w +X}.pXD.(.[.D.pXaX[.V.8 r 5.y.6X,X",
"8X;X4XbXi =X^._.BXBXJ.K.=Xq + 8 ( 3 7 7 &X%Xf.b m b F 8 C.pXaX&X% c uXNXNXmX^.~.yXVXiX|.|.3 W c #XCXZXVXaXuXyXpX~./.9 w g y.4X-X",
"8X;XlXfXi ^.=X[.BXBXJ.H.(.W.N P F y W CX&X}.t g.g.9 x Z.A.F.BX|.a.x C.#X#.( C.#XyXBXBXD.SXb ! 4 e 3XVXf + v M.BXJ._.v.; i y.7X,X",
";X8X8.8.2 .X%X_.aXBXJ.J.J.VX}.#XOXQ.k (.CXC.L 9 9 b G./.V.[.aXNXMX0 g.AXN.1 g &XC.aXpXS.dX@., r ! ^ 2 + % < m.NXNXD.eX: < q.5X;X",
":Xv.5Xe.' 9 @X`.mXBXS.S.J.VXBXaXMX%Xp.@.F..XA.C.}.oXV.V.G.K.H.K.L.y q `.'.; y `.M.G.K.K.MXMX; Q #.l.I.Q.%XoXV.sXpXJ._.W > q.5X;X",
">X;XlXy.x o f.+X_.[.A.(.pXBXVXaXVX'.k b _.#XG.A.A.K.S.K.(. X}.$XQ.d.9 ZXJ.I.I./.CXuXJ.J.BXDX; Q k.!.VXNXBXpXsXNXNXCXpXW O q.lX1X",
"<X8X>XkXr.< > R.+X(.`.'.pX(.BXVXVXoX+.O._.[.mXH.G.pXNX`.'.C.V.h.U.> w MXF.A.V.C.VXuXJ.D.ZX`.! W m oXVXaXaXVXVXCXNXNXBX! %  .u.:X",
"I J 7.i.2. .; 6 *X`.L.N.eXCXD.BX[.oX2X( V.[.aXS.A.NX).&.i ! e 4 5 w o._.BXyXuXuXsXVXJ.aX$Xl ! 4 0 [.pXVXpX^.].A.D.pXVX#.+ g e.J ",
"D J e.:.X.: ; 3 1 : o 2 ' nX{.BX}.%Xj.9 C.#XpXJ.K.).VX5 Q e w ( ^ 2X&X_.uXyXVXVXaXpXsXSXU.: 2 4 L NXpXsX.Xp.o Y.D.uXCX1X: + 3.J ",
"j 1..., x.&.s.l.W.n.!.P.6 ~ %XBXuXSXY.- E oXD.S.A.[.VXoXw 4 e o.) ! 1XSXZXMXVXVXVXdXOXY.2 ! Q r ).aXBXT.q ] W l V.aX[.iX! > ,.*.",
"6. .p s.W.n.^.W.+X^.oXQ.p.+ $XVXaXCXx.% g. XuXA.K.yXyXVXW.t e ( o.( ! g sXZX|.}.).W.d.9 ( ~ | g.[.yXoXs.> ^ ..x K  X_.iX2 + g ,.",
"y.6 v @XA././.H.(.T.L.`.!.W.C.VXmXpXP.+ N.$XyXG.K.BXmXaXCX.Xe 5 ` ` ! 3 5 w p.p.l z o W } r.u h.mXuX&X+.: 6 <.3 x @XNXNX5 O i 0.",
"i.W Z.+XM.{.NXpXNXS.L.[.}.}._.pXF.MX!.8 G |.[.V.A.pXBXpXVXCXI.W ( ` b i 3 3 W ~ 1 1 : ` u.vXw 0 N.iXSX) W i =.2 x '.BXNX_ ; 9 e.",
"i.[ g.Q.A./.[.BXpXS.H.J.pXyXZX[.dXZXz.@ ~ SXoX+X'.F.mXVXpXsX|.E.e e q : 4.<.} / X.=.<.u.vX .; : : ; 1 ( r a ;.; 9 _.pXVX5.; + 3.",
"i.' F @XA.Z.yXBXBXJ.S.S.G.F.D.dXoXz.% X.> z @.I.#X&XOX$X#X&XQ.x.@ 5 <.w.cXr.r.w.w.4.3.tXKXbX/ Q W / : : o 7 i.2 x ~.pXVXm.O , 5.",
"q.| 2 E.&X/.~.(.'.`./.'.#X].Q.Q.l.% / 2.2.- ; ) b F K s.d.p.l 3 ] 4.tXcXfXlX8.6.>.h h >XFXhXt.t.t.y.q.-.{ } kX: 9 V.G.CXG.O ; >.",
"8.zX7 W %XE.T. X+XV.V./.S.Z.d.p.o W q.kXr.2.X p 6 6 5 2 4 3 ] i.r.kXlX4X>X1XE & # . B v.FX4XxX6.6.>.6.vXy.jXkX' , n G.VXiX1 : r ",
"U KX8.} 2 c M B b _ i 4 6 2 2 ~ X.e.hX4X7.6.*.*.,.9.hXbXr.kXzXfXlX4X0Xm.1XI Z &   # v %.8XY D d d d C 0XlX4XgX{ , 9 G.[.eX! : p ",
"I KXgX@.;.a 2 ; ; O O O e ! 9.q.hX5X<X8XU E . . C J ,XxX0X<X7.I S A B C & & & & . = & A & & & & & B   T V Z 6. .9 8 (.[. X< O 6 ",
"I PXlXfXy.q.>. .j a a  .0.hXgXt.0X8X7.1XU F   . & A B ;X;XE D v y                 = B V B B V F F A A     # s <.y , C.{.AXS O < ",
"I FXwX4X4XfXzXfXkXu.e.*.8.LX0X6X8X-X;X8XI V       V B y   &         &   &     &   * B A D B B B C C B V C C h >.O , + < q , ; O ",
"I GXqX8X8X-X,X0X4X0XJ # D LX;X,X;X;X8X-XI F     & B B C y & & & & V B V y A V v V B B A A Y Y Y #.g.7.g.7.g.7.t.7 O > , , 4 , O ",
"I GX8X;X;X8Xm.8X;XU D # B LX8X;X-XY ;X8XU D       & I g.Y %.Y Y %.g.Y #.Y Y %.R 1X;X;X,X8XqX8XJXwXJXqXJXqXqXJXxXvXlX2X8.rXt.1.0.",
"I JXqX8X8X;X8X;X6XZ     V LX,X;X8X;X;X-XI D &     & Y JXqXJXqXJXqXJXJXqXJXqXJXqXJXqXFXGXGXLXLXLXLXLXLXLXLXLXLXLXHXKXKXKX2X%.$ A ",
"I FXqX;X8X;X8X8Xv.F   & B LX;X8XY ,X-X8XI V &       Y JXJXLXLXLXLXLXGXGXLXLXGXLXLXLXLXLXGXGXFXFXqXqXqXJXqX8XqXJXqXqXJXwX#.A   V ",
"I qXqX8X;X8X:X;X;XV   & B HX9X9X-X8X;X;XS D &       Y JXJXqXJXqXJXqXJX8XqXJX8XqXJXqXqX8X8X,X,X;X1X8X1X8Xv.>X;X8Xm.8X;X8XU D & & ",
"V JX-X1X8X-X#.R &.A   & B UXv.>X8X-X8X;XU A &       I qXGXqX;X;Xm.;X;X;X8X-X8X8X;X;X,X8X8X8X;XY ,X-X8X8X,X7.9X;X8X8X,X;XU A   & ",
"B qX8X8X,X;XD Z A     y B qX8Xv.;X8X;X-XT A &       B JXGXqX;X;X;X9X;X<X;X,X8X-X;X,X8X8Xv.,X;X,X;X1XY -X<X,X1X8Xv.9X;X8XU A & & ",
"B Y Y Y A A A A A   & & & ,X,X8Xm.;X;XU I A &         qXGXFX8X8Xv.>X;X;XY ;X-X8X;X,Xm.8X4XT 7.1X8X-X1X8Xv.%.T 1X#.<X1X1XT A   & ",
"B &       A A A A   & & V %.S S I I S I A V &       & 8XFXFX;X-X8X;X8X-X;X8X;XY Y ,X,X-X8X;X8X;X;X8X-X;XY ;X;X-X8X;XU 7.U D   & ",
"V A A C &         & * v & & & y & & & & & & &         1XFXqX8X;X;X8X-X8XY ;X-X,XY ,X;X,XY 8X-X;XY ;X;X;X-X8X;XY ;X;Xv.Y U D   & ",
"C C C C B V B &     & C & &                         & -X,XU T T U T T U 8X;X8X8X-X;XY -X;X;XY ;X;X8X-X8X;X;X8X-X;X;X;X,XU A   & ",
"B Y 8X8X8X8X;X1XI C V A & &     &     &     &   &   & A B & &   &   &   A T U Y ;XY Y Y Y Y Y Y Y Y Y Y Y Y Y Y Y Y Y Y I V   & ",
"B 8XJXFXGXFXGXGXqX8X8X;XU S A V & & & & & & & & & & & D B B & & & & & &   V A A A A A A A A A A A A D A A A A A A A A A A   & & ",
"B 8XFX8X8X;XqXFXGXGXGXqX8X8X8X8X8X8X8X,X;X;X-XY Y I I I V D B B B & B & &   *   &   &   &   &   *                           & & ",
"B 8XGX8X8X8XqX0X;X8XqXGXGXGXFXGXFXGXFXGXGXGXGXJXFXJXqX8X8X8X8X8X-XV A B & & & & & & & & &     &   &   &   &   &   &   & & & C V ",
"B 8XGX8Xm.8X#.g.8X,X1X#.8Xm.8X1X8X;X8X8X-X8X;X8X8X8XJXFXGXFXFXqX-X& B V C B B & & &   & & & & & & & & & & & & & & & & & & B V A ",
"C 8XJX8X8X8X1X8X;X;X;X,X8Xv.>X9XY R ;X8XY ;X-X;X8X-X8X;X8X8X8XY I   & V B 8XFXGX,XY V C B A Z A C C & B B B & B B & B B V D V A ",
"C 8XJX8Xm.8XY Y ,X8Xm.8X8X,X7.Y 8XY ;XY ,X-X8X;X8X;X8X-X8X8X,XI A   & B B GX8X8XGXGXGXFXqXA A C qXGXPXFXGXGXGXFXFXJX8X,XY V C A ",
"B 8Xm.U S I E I S I I S I S I I S I S I S I I S I S I S I S I A A &   & B FXqX8XqX8XqXqXqXS A Y GX,X8X8X;X8X-X8X,X8X;X8XFX,X  A ",
"B ;XI & & y & & & & & & & & & & & & & & & & & & & & & & & & & & & &     V qX8XqXqX,XS ,Xm.I v wX8X;X8X-X8X8X8X-X8X1X8X-X8XA   A ",
"B y                                                                     V & B & V I S I I S V GX,X,X,X8X8X;X,X8X,X,X8X1X;XV   A ",
"A C & & &   &     &     &     &   &     &     &     &     &     &   &   & A A & &           & A A A A A F A A V A A A D V A   A ",
"A A V A B B B C V v B V & & & & * & & & & & & & & & & & & & & & & & & & & V A F A & & & & & & V V                             D ",
"& & & & & & & & & & & & & & & & & & & & & & & & & & & & & & & & & & & & & & & & & & & & & & & & & & & & & & & & & & & & & & & & "
};
