/* XPM */
static char *_4221_b82aac0e54e5068298926f6cb6aef10ebd5dc2fb9be1d1325ea10ccea8b4d144[] = {
/* columns rows colors chars-per-pixel */
"64 64 256 2 ",
"   c #1F1F1F",
".  c #1C1C15",
"X  c #11070B",
"o  c #2A0103",
"O  c #390107",
"+  c #3A0416",
"@  c #25011B",
"#  c #26261E",
"$  c #36361C",
"%  c #320332",
"&  c #3B3B3B",
"*  c gray21",
"=  c #2D2D2A",
"-  c #071C36",
";  c #470108",
":  c #570105",
">  c #450317",
",  c #570218",
"<  c #4B1613",
"1  c #640101",
"2  c #670506",
"3  c #770306",
"4  c #650418",
"5  c #770416",
"6  c #6A1410",
"7  c #733216",
"8  c #590626",
"9  c #5C0C36",
"0  c #5A183A",
"q  c #4B0D2D",
"w  c #660727",
"e  c #770A29",
"r  c #66142A",
"t  c #6A1137",
"y  c #532534",
"u  c #792638",
"i  c #712C2A",
"p  c #5D2110",
"a  c #764617",
"s  c #75751E",
"d  c #47473A",
"f  c #55552F",
"g  c #764C2D",
"h  c #716F35",
"j  c #55551F",
"k  c #37084E",
"l  c #2E096A",
"z  c #230E59",
"x  c #531447",
"c  c #6C1547",
"v  c #4F3153",
"b  c #6A304E",
"n  c #533769",
"m  c #6F316A",
"M  c #531C6A",
"N  c #344476",
"B  c #474747",
"V  c #4D4D4D",
"C  c #494947",
"Z  c #56564A",
"A  c #555555",
"S  c #5F5F5F",
"D  c #5A5A56",
"F  c #52505C",
"G  c #686847",
"H  c #65655C",
"J  c #73714D",
"K  c #50516F",
"L  c #735070",
"P  c #506A6E",
"I  c #676767",
"U  c #6B6B6B",
"Y  c #7B7B7B",
"T  c #747473",
"R  c #726E72",
"E  c #5D605B",
"W  c #870205",
"Q  c #990503",
"!  c #8D1015",
"~  c #AB0300",
"^  c #A40312",
"/  c #B12B01",
"(  c #8B0F29",
")  c #AB1425",
"_  c #892D2E",
"`  c #A4332C",
"'  c #8E2F0A",
"]  c #C80304",
"[  c #C23302",
"{  c #8B4D1A",
"}  c #A96B0F",
"|  c #8B502D",
" . c #9D6527",
".. c #CB7306",
"X. c #D25E07",
"o. c #91364D",
"O. c #80184E",
"+. c #8B4B51",
"@. c #876958",
"#. c #916D6C",
"$. c #A7674B",
"%. c #71A577",
"&. c #5DA275",
"*. c #8F8E1A",
"=. c #AF8A1C",
"-. c #928E35",
";. c #AC8930",
":. c #B3B238",
">. c #A6A62D",
",. c #C3B32D",
"<. c #D2A00E",
"1. c #BFC12B",
"2. c #F8FD17",
"3. c #D2D038",
"4. c #D9E41D",
"5. c #96924E",
"6. c #B2B350",
"7. c #8B8B6E",
"8. c #B09C64",
"9. c #C7914C",
"0. c #C6B24F",
"q. c #C9B962",
"w. c #9EE262",
"e. c #CBCA50",
"r. c #EDF14F",
"t. c #C5C667",
"y. c #CFD172",
"u. c #E6F072",
"i. c #DDDF5E",
"p. c #1F1798",
"a. c #4C3E8B",
"s. c #325495",
"d. c #205CB5",
"f. c #55688A",
"g. c #686D88",
"h. c #4E73A9",
"j. c #7967A8",
"k. c #564C99",
"l. c #1335E9",
"z. c #096CF7",
"x. c #0956D5",
"c. c #467CC1",
"v. c #8472A0",
"b. c #802E9B",
"n. c #3BA599",
"m. c #6A8E86",
"M. c #51AB91",
"N. c #71AA95",
"B. c #6986AB",
"V. c #54B2B1",
"C. c #71B4B0",
"Z. c #4F9491",
"A. c #55CFB1",
"S. c #69DAB4",
"D. c #7DDCBC",
"F. c #76D5BA",
"G. c #6ACEB1",
"H. c #6AE1B3",
"J. c #77E3B8",
"K. c #66E0AF",
"L. c #5BD39B",
"P. c #1699D9",
"I. c #2DACCF",
"U. c #1891F1",
"Y. c #1FA0EC",
"T. c #4EB5CD",
"R. c #6EB6CF",
"E. c #599BD7",
"W. c #35D2EB",
"Q. c #30F1F9",
"!. c #1EDFEE",
"~. c #56D7C7",
"^. c #56DADA",
"/. c #4CCCC9",
"(. c #68DBC8",
"). c #65DBD6",
"_. c #6FCFCA",
"`. c #56E7C7",
"'. c #58E6D8",
"]. c #4CF2D9",
"[. c #7BE5C8",
"{. c #66E9D6",
"}. c #77E9D6",
"|. c #76F4DA",
" X c #67EDCF",
".X c #47D1ED",
"XX c #53EBE9",
"oX c #57FAE9",
"OX c #49FBFD",
"+X c #58FBF5",
"@X c #49EAF3",
"#X c #69F5E8",
"$X c #76F9E8",
"%X c #67FEFA",
"&X c #75FEF9",
"*X c #71E9E6",
"=X c #65DAE2",
"-X c #838383",
";X c gray56",
":X c #8C8C83",
">X c #97978B",
",X c #9B9B9B",
"<X c #999990",
"1X c #8D9395",
"2X c #B09887",
"3X c #8BAC95",
"4X c #A7A78E",
"5X c #B7B78D",
"6X c #A8A79A",
"7X c #B8B899",
"8X c #ABABAB",
"9X c #AEAEA1",
"0X c #B8B8AB",
"qX c #B7B7B7",
"wX c #BDBCB7",
"eX c #80B6A3",
"rX c #D1BD90",
"tX c #BCCE8F",
"yX c #85DCBB",
"uX c #87D9B8",
"iX c #8CCDB2",
"pX c #85E2BD",
"aX c #8BE2BC",
"sX c #8FE5B7",
"dX c #A8E3AA",
"fX c #C6C78B",
"gX c #D6D794",
"hX c #D2D290",
"jX c #E2DB95",
"kX c #E8E990",
"lX c #C8C9A9",
"zX c #D4D5AA",
"xX c #CDCFB3",
"cX c #D7EEB2",
"vX c #EAECAB",
"bX c #E2E19C",
"nX c #87BACD",
"mX c #83DDC5",
"MX c #97D6C3",
"NX c #86E3C2",
"BX c #8AE6C2",
"VX c #8BE9C4",
"CX c #86EACA",
"ZX c #8EF2CC",
"AX c #84FEFA",
"SX c #8EF7ED",
"DX c #A9F3D1",
"FX c #D3D3D3",
"GX c #DFDFDF",
"HX c #DDDAD3",
"JX c #C7C7C7",
"KX c #E7E7D8",
"LX c #EFEFEF",
"PX c #E0E1E0",
"IX c #F5F4EF",
"UX c #DBE3C5",
/* pixels */
"  &   &   &   &   &   &   &   &   &   &   &   &   &   &   &   &   &   y   &   &   &   &   &   &   &   &   &   &   &   &   &   & ",
"A A D V A V D V D V C FXGXGXGXFXGXFXGXGXGXFXGXFXGXGXGX  * 7.8XqXFXJXFXFXJXFXqXJX8X-XD   B B B B B B B B B B A V D V D V D F A V ",
"A A A A D A A A D A B GXFXJXFXqXFXFXFXJXFXFXqXFXFXJX;X  & v.JXqX;X8Xm.;X;X;X1Xm.8XV &   & U ;X;X-X;X;X;XY U I B B B C B C B C B ",
";X;X-X;X>X>Xg.;X  F V GXJXJXqXFXqXJXJXqXJXJXqXqXFX;XS   & 8XFX8X;X8X;X8X-X8X;X8X-XA &   & ;XFXGXGXGXFXGXqXqX8X;X-X;X;X;X-X;X;X;X",
"FXFXFXFXqX8X;X-X  A B PXFX8X8X,X8X;X8X8X8X8X,X8X8XY A   & ;XqX;X;X-X8X8X8X8X-X;XT V &   & -XGXGXqXJXqXFXGXGXGXFXGXFXJXFXFXFXJXFX",
"8X8X8X8X,X8XY T   A B LXqX,X8X8X8X8X,X8X;X8X-X8X8XI A   & B 8X;X8X8X-X;X,X;X8XU A A &   & ;XFXqX8X;X8X;X8X8X,X;X;X8X;X8X-X8X;X,X",
"qX,X,X,X8X;XY U   V B LXFX8Xv.9X;X8X;X,X,X,X;X;X8X;XV   & B Y ;X-X8X;X8X8X-X8XT & & &   & -XGXqX;X8X-X6X-X;X;X8X-X;X,X;X8X,X;X,X",
"qX8X-XqX-X,XS A   & B LXJX;X,X:X8X8X,X;XY ;X;X8X;XS D   & B B ;X8X8X,X;X;X;X8XU & & &   & ;XGX8X8X-X,Xg.8X,XY ;X8X-X8X8X;XY 8X,X",
",X8X8X;X,XT B V     V JXqX8X,X8X-X8X1X,X-X,X;X;X8XU A     V A B #.& & & & & & & &     & * T GXGX;X8X-X-X,XT ,X;X8X;X;X%.8X6XR ;X",
";X;Xm.1XT A B C   & B 8XLX8X,X8X1X1X;X;X;X;X-X8X-XA Y     & B & & & & & & &   &       B B B JXJX;X;X;X;X,X,X,X-X;X8X1X8X8Xv.8X;X",
"R U T T V V & &   . * ;XFX1X8X;X;X#.;X;X8X-X8X;X8XU D &   & B &             # &   &   C A B JX8X>X0X7.wX4X>X<X7.7.7.J E I S I S ",
"A D B B B       # = = Y KXqX7.,Xm.#.g.8X,X;X-XY 1XU I * . & C B V Z T g.;X8X,X8X8X,XT & F V lX7Xq.q.0.9.0.0.0.q.0. .0.5.Z B B C ",
"          &   d j h >.6.UXrXrXfXfX0X6X7.>X8X#.;X8X;XZ & $ h Z T 8X8XFXPXLXFXFXFX,XU A   Z 5.gX9.t w w 9 w 8 9 c t u r fXh   &   ",
"  y   &   # d s ,.$.< w u o._ _ $.9.gXxX4X>X9X>X:XY H f h 7.J 0XwXKXHXwX:X0X7X0X;X7.f $ -.rX4 8 m j.v.v.v.j.k.O.M c 4 t. .#     ",
"& & & & y f :.3.> k s.oX#X+X*X=Xh.x _ cXgX8.5XzXhXe.t.:.:.:.-.0XHXxXxXtXhXhXhXjXhXq.-.*.i.4 x Y.XX).*X}.SX[.pX Xz.% > ,.>.d & & ",
"A C & * f ,.@.o P.Q.I./.T.R.R.nX*X+Xd.b zXvXkX$.b x t p u >Xy.vXIXvXlX$.$.u 4 w w | 3Xr.` % W.}.aXN.3X3Xm.%.iXsXXXl 8 :.y.G C & ",
",X,X;X6XhX .y I.+X^.n.[.NXCXpXVXVXSX@Xx 7.DXu b f.h.h.f.b r w #.FX+.w x f.C.B.f.M y r 7 ! z.|.VX7.4 e e 4 8 L sX|.a., h fX7X,X,X",
"FXJXFXUXvX6 B.+XF.G.H.[.VXVXVXVXpXpXSXT.O.! 0 P.@X+XW..Xs.q 4 i b 8 a.Y..X.XXX.XP.p.q ; q !. XuXg.M b b v n P mX Xk.2 y xXKXKXFX",
"8X,X<XcX;.B.Q./.F.J.H.J.BXuXCXpXpXD.&XY.l , oX(.SXpXuXK.VXQ.d., , ).AXDXMXyXVXVXVX#XQ.k 2 k..XG.D.).|.|.{.#X/.F. XT.w 0 9.zXqXqX",
"8X1X6XgXi E.^.V.aXaXK.H.D.3 e SXAX&XI.: W $XXXR w 8 , > iXCXH.k., ,XMXuXVXNXmXmXsXpX|.].b ^ w OX}.pXD.(.[.D.yXaX[.V., r 5.y.6X,X",
"8X;X<XvXi ^.^._.VXVXJ.H.*X% + > ( 3 7 7 &X%Xf.b b m F 8 N.aXaX%X% c F.mXNXmX^.~.pXVXuX}.|.W W c $XCXZXVXpXuXuXaX~./.9 w g y.4X-X",
"8X>XwXfXi ^.).mXaXVXH.H._..XN P F y W }.&X}.c g.g.9 0 Z./.F.VX|.s.c C.{.#.( C.#XaXaXNXD.SXb 5 5 e 3XVXf + v M.NXJ._.v.; i y.7X,X",
";X8X8.8.1 .X&X_.NXVXJ.J.J.VX}.$XOXQ.k D.J.R.L w x b G./.V.NXVXNXaXc g.AXN.1 g &XC.pXpXH.dX@., r ! ^ 2 + % < m.yXNXD.eX: y q.5X;X",
";X-Xq.e.7 c @X`.mXaXH.S.J.VXVXaXMX%Xp.@.F.^./.C.}.oXV.V.S.K.S.K.L.y q `.'.; y `.M.G.K.K.MXMX; Q #.l.I.Q.%XoXA.yXJ.J._.W ; 0.5X;X",
";X;XlXy.x o f.+X_.[.A.(.J.VXVXVXVX'.k b mX#XG.A.A.S.S.K.(. XCX&XQ.p.9 ZXJ.I.I.~.VXyXJ.J.BXDX; Q k.!.pXNXVXaXaXVXNXCXpXW O q.xX;X",
",X8X>XkXr., > R.+X(.`.`.pXS.VXVXVXoX+.c _.CXmXS.A.mXmX`.'.C.M.h.Y.q w VX_.A.V.C.VXyXJ.J.ZXS.! W m oXVXVXaXVXVX[.NXNXVX! %  .u.:X",
"H H 7.i.2. .; 6 #X~.L.N.3XCX[.VX[.oX2X( V.[.aXH.A.VX_.%.i ( e , 5 w o._.aXuXuXuXaXVXJ.pX%Xl ! 4 0 [.pXaXpX^.].A.yXaXVX#.+ g e.J ",
"D J e.:.X.: ; 3 1 : o 6 _ nX(.aX}.#Xj.c V.$XyXH.K.~.CX5 Q e w ( ^ 6XAXC.yXmXBXVXpXpXsXSXU.: 2 4 L VXsXpX.Xp.o Y.D.yX[.1X: + 3.J ",
"j 3..., x.&.s.l.W.n.!.P.6 ~ %XBXyXSXY.- E oXD.S.A.NXVXoXw , e o.) ^ 1XAXZXBXMXVXMXdXOXY.4 ! Q t ).NXaXT.q ~ ^ l V.BXCXeX5 > ,.*.",
"6. .p s.!.n./.Q.+X^.oXQ.p.+ $XVXmXCXx.% g. XuXA.K.NXyXVX.Xt ( e o.! ! g sXZX|.}.).W.d.9 ! ~ | g.[.yX#Xs.> ^ ..x K {.[.iX3 + g ,.",
"y.6 v +XA.T.~.H.(.A.L.~.!.W.C.NXNXaXP.+ N.$XyXG.K.NXmXyXCX.X5 5 o.` ! 3 5 w p.p.l z o W } r._ h.CXMX%X+.: 6 <.3 M ].mXCX3 O i 0.",
"e.Q Z.+XM.).pXpXmXS.A.NX}.*XF.NXF.MX!.8 G |.[.V.A.NXBXBXVXCXI.! ( ) b i 3 3 W ~ 1 1 : ` u.vX9 y %.eXAX) ! i } 1 0 ^.BXNX_ O 8 i.",
"i./ g.@XA.~.mXVXNXS.K.[.NXyXCXCXdXZXz.@ ~ SXoXoX'.F.yXBXBXaX[.E.5 e q : 4.<.} / X.=.<.u.vX .> : : ; : ( r a ;.; 9 _.pXVX@.; < 3.",
"i.' F @XA.Z.D.BXVXS.K.S.G.F.uXdXoXz.% X.> z #.I.#X&XOX$X#X#XQ.z.@ 5 <.w.cXr.r.w.w.4.3.tXKXbX/ Q Q / : : o 7 r.: 0 ^.yXVX%.O , 5.",
"q.| 2 E.&X/.~.(.'.`./.^.#X].Q.Q.l.% / 2.2.- ; ) b F K s.d.p.l 3 ] 4.tXcXfXlX8.6.>.h h >XFXhXt.t.6.y.q.-.{ } kX: 9 V.G.CXiXO ; -.",
"8.zX7 3 %XE.T. X%XV.A.V.F.n.d.p.o W q.kXr.2.X p 6 6 5 4 , W ] i.r.kXlX4X>X1XE & # . B v.FX4XxX6.t.>.6.vXy.jXbX' , n G.CXuX: : i ",
"U KX6.} 2 c M B b _ i 4 5 1 2 ~ X.e.hX4X7.6.*.*.,.0.rXvXr.kXbXtXlX4X0Xm.1XI Z &   # B %.8XY D d d & C 0XlX4XgX{ 8 8 F.J.eX5 : p ",
"I KXlX#.;.a 2 ; ; O O O 6 _ 9.t.hX5X4X8XU D   . d J 2XwX0X<X#.U S A B C & & & &   # & F & & & & & C   T V Z 6.} 9 8 (.}.(.< O 7 ",
"I PXlXy.y.t.=.-.7 s a { 9.y.jXt.0X7X%.v.U A   . & F C ;X;XS A B &                 = v V B B V A E A A       s <.y , C. XAXE O ; ",
"I FXqX4X8.lXzXtXgXu.e.*.5XKX0X6X9Xv.;X9XI V       V B &   &         &   &     &   & d A D B B C B B B V C C h >.o , + < q 8 ; O ",
"I PXqX8X8X-X,X8X4X0XJ = D LX;X,X;X;X8X-XI A     & B B v * & & & & V B V y A C v V B B A A Y Y Y 7.g.7.g.7.g.7.t.7 ; ; , ; 4 w O ",
"I GX8X;X;X8X-X8X;XU D   B LX8X;X-XY ;X8XU D       & I %.Y Y Y Y Y Y Y Y Y Y %.T 1X;X;X,X8XqX8XJXqXJXqXJXqXqXJXxXbXlX2X2XrXt.,.6.",
"I JXqX8X8X;X8X;X8XZ     V LX<X;X8X;X;X-XI A &     & Y JXqXJXqXJXqXJXJXqXJXqXJXqXJXqXFXGXGXLXLXLXLXLXLXLXLXLXLXLXHXLXKXKX2X%.$ Z ",
"I FXqX1X8X;X8X8Xm.D   & v LX;X8XY ,X-X8XI V &       Y JXJXLXLXLXLXLXGXGXLXLXGXLXLXLXLXLXGXGXFXFXqXqXqXJXqX8XqXJXwXqXxXqX#.A   A ",
"I qXqX8X;X8X:X;X1XV   & B GX8X8X-X8X;X;XS A &       Y JXJXqXJXqXJXqXJX8XqXJX8XqXJXqXqX8X8X,X,X;X1X9X;X8X-X;X;X8Xm.8X;X8XU A & & ",
"C JX-X;X8X-XT R T A   & B FX-X;X8X-X8X;XU D &       I qXGXqX;X;X-X;X;X;X9Xv.8X8X;X;X,X8X8X8X>Xg.,Xv.8X8X,X-X8X;X8X8X,X;XU A   & ",
"B qX8X8X,X;XH Z A . . v B qX8X-X;X8X;X-XR A &       B JXGXqX;X;X;X8X;X,X:X2X8X-X;X,X8X8Xv.,X>X,X;X;XY -X,X,X1X8X-X8X;X8XU A & & ",
"B Y Y Y A A A A A   & & & ,X,X8X-X;X;XU I A &         qXGXFX9X6X-X;X;X;X%.v.-X8X;X,Xm.8X4XT 7.;X8X-X;X8X;XY T 1X#.,X;X1XT A   & ",
"B &       A A A A   & & V Y I S I I S I A A &       & 8XFXFX1Xv.8X1X8X-X;X8X;XY Y ,X,X7.8X1X8X;X;X8X-X;XY ;X;X-X8X;XR -XU A   & ",
"A A A B &         & & & & & & & & & & & & & &         ;XFXqX8X1X;X8X-X8XY ;X-X,XY ,X1X<Xm.8X#.;XY ;X;X;X-X8X;XY ;X;X-XY U D   & ",
"C C B B B V B &     & V & &                         & m.,XU T T U R T U 8X;X8X8X-X;XY v.;X;XY ;X;X8X-X8X;X;X8X-X;X;X;X,XU D   & ",
"B Y 8X8X8X8X;X;XI V C A & &     &     &     &   &   y A B & &   &   &   A R U Y ;XY Y Y Y Y Y Y Y Y Y Y Y Y Y Y Y Y Y Y I V   & ",
"B 8XJXFXGXFXGXGXqX8X8X;XU S A V & & & * & & & & & & & D B B & & & & & &   C A A A A A A D A A A A Z A A A A A A A A A A F   & & ",
"B 8XFX8X8X;XqXFXGXGXGXqX8X8X8X8X8X8X8X,X;X;X-XY Y U I I V A B C B & C & &   &   &   &   &   &   &                           & & ",
"B 8XGX8X8X8XqX8X;X8XqXGXGXGXFXGXFXGXFXGXGXGXGXJXFXJXqX8X8X8X8X8X-XV A B & & & & & & & & &     &   &   &   &   &   &   & & & C V ",
"B 8XGX8X-X8XY Y 8X,X;XY 8X-X8X;X8X;X8X8X-X8X;X8X8X8XJXFXPXFXFXqX-X& C V C B B & & &   & & & & * & & & & & & & & & & & & & C C A ",
"B 8XJX8X8X8X;X8X;X;X;X,X8X-X;X8XY R ;X8XY ;X-X;X8X-X8X1X8X8X8XY I   & V V 8XFXGX,XY V C B A A A B C & B B B & B B & B B V A A A ",
"B 8XJX8X-X8XY Y ,X8X-X8X8X,X-XY 8XY ;XY ,X-X8X;X8X;X8X-X8X8X,XI A   & B C GX8X8XGXGXGXFXqXA A V qXPXPXFXGXGXPXFXFXJX8X,XY V B A ",
"B 8X-XI S I S I S I I S I S I I S I S I S I I S I S I S I S I A A &   & B FXqX8XqX8XqXqXqXH D Y GX,X8X8X;X8X-X8X,X8X;X8XFX,X  A ",
"B ;XI & & & & & & & & & & & & & & & & & & & & & & & & & & & & & * &     V qX8XqXqX,XS ,Xg.U C qX8X;X8X-X8X8X8X-X8X1X8X-X8XA   A ",
"B &                                                                     V & V & V I S I I S C GX,X,X,X8X8X;X,X8X,X,X8X;X;XV   D ",
"A B & & &   &     &     &     &   &     &     &     &     &     &   &   & V A & &           & A F A A A A A A V A A A A V A   A ",
"A A V F B B B B V B B V & & & & & & & & & & & & & & & & & & & & & & & & & A A V A & & & & & & V A                             A ",
"& & & & & & & & & & & & & & & & & & & & & & & & & & & & & & * & & & & & & & & & & & & & & & & & & & & & & & & & & & & & & & & & "
};
