/* XPM */
static char *_ddeb827d0de464fc354e60f36cb9e42[] = {
/* columns rows colors chars-per-pixel */
"64 64 256 2 ",
"   c black",
".  c #010101",
"X  c #020202",
"o  c gray1",
"O  c #040404",
"+  c gray2",
"@  c #060606",
"#  c #070707",
"$  c gray3",
"%  c #090909",
"&  c gray4",
"*  c #0B0B0B",
"=  c #0C0C0C",
"-  c gray5",
";  c #0E0E0E",
":  c gray6",
">  c #101010",
",  c #111111",
"<  c gray7",
"1  c #131313",
"2  c gray8",
"3  c #151515",
"4  c #161616",
"5  c gray9",
"6  c #181818",
"7  c #191919",
"8  c gray10",
"9  c #1B1B1B",
"0  c gray11",
"q  c #1D1D1D",
"w  c #1E1E1E",
"e  c gray12",
"r  c #202020",
"t  c gray13",
"y  c #222222",
"u  c #232323",
"i  c gray14",
"p  c #252525",
"a  c gray15",
"s  c #272727",
"d  c #282828",
"f  c gray16",
"g  c #2A2A2A",
"h  c gray17",
"j  c #2C2C2C",
"k  c #2D2D2D",
"l  c gray18",
"z  c #2F2F2F",
"x  c gray19",
"c  c #313131",
"v  c #323232",
"b  c gray20",
"n  c #343434",
"m  c #353535",
"M  c gray21",
"N  c #373737",
"B  c gray22",
"V  c #393939",
"C  c #3A3A3A",
"Z  c gray23",
"A  c #3C3C3C",
"S  c gray24",
"D  c #3E3E3E",
"F  c #3F3F3F",
"G  c gray25",
"H  c #414141",
"J  c gray26",
"K  c #434343",
"L  c #444444",
"P  c gray27",
"I  c #464646",
"U  c gray28",
"Y  c #484848",
"T  c #494949",
"R  c gray29",
"E  c #4B4B4B",
"W  c #4C4C4C",
"Q  c gray30",
"!  c #4E4E4E",
"~  c gray31",
"^  c #505050",
"/  c #515151",
"(  c gray32",
")  c #535353",
"_  c gray33",
"`  c #555555",
"'  c #565656",
"]  c gray34",
"[  c #585858",
"{  c gray35",
"}  c #5A5A5A",
"|  c #5B5B5B",
" . c gray36",
".. c #5D5D5D",
"X. c gray37",
"o. c #5F5F5F",
"O. c #606060",
"+. c gray38",
"@. c #626262",
"#. c gray39",
"$. c #646464",
"%. c #656565",
"&. c gray40",
"*. c #676767",
"=. c #686868",
"-. c DimGray",
";. c #6A6A6A",
":. c gray42",
">. c #6C6C6C",
",. c #6D6D6D",
"<. c gray43",
"1. c #6F6F6F",
"2. c gray44",
"3. c #717171",
"4. c #727272",
"5. c gray45",
"6. c #747474",
"7. c gray46",
"8. c #767676",
"9. c #777777",
"0. c gray47",
"q. c #797979",
"w. c gray48",
"e. c #7B7B7B",
"r. c #7C7C7C",
"t. c gray49",
"y. c #7E7E7E",
"u. c gray50",
"i. c #808080",
"p. c #818181",
"a. c gray51",
"s. c #838383",
"d. c #848484",
"f. c gray52",
"g. c #868686",
"h. c gray53",
"j. c #888888",
"k. c #898989",
"l. c gray54",
"z. c #8B8B8B",
"x. c gray55",
"c. c #8D8D8D",
"v. c #8E8E8E",
"b. c gray56",
"n. c #909090",
"m. c gray57",
"M. c #929292",
"N. c #939393",
"B. c gray58",
"V. c #959595",
"C. c gray59",
"Z. c #979797",
"A. c #989898",
"S. c gray60",
"D. c #9A9A9A",
"F. c #9B9B9B",
"G. c gray61",
"H. c #9D9D9D",
"J. c gray62",
"K. c #9F9F9F",
"L. c #A0A0A0",
"P. c gray63",
"I. c #A2A2A2",
"U. c gray64",
"Y. c #A4A4A4",
"T. c #A5A5A5",
"R. c gray65",
"E. c #A7A7A7",
"W. c gray66",
"Q. c #A9A9A9",
"!. c #AAAAAA",
"~. c gray67",
"^. c #ACACAC",
"/. c gray68",
"(. c #AEAEAE",
"). c #AFAFAF",
"_. c gray69",
"`. c #B1B1B1",
"'. c #B2B2B2",
"]. c gray70",
"[. c #B4B4B4",
"{. c gray71",
"}. c #B6B6B6",
"|. c #B7B7B7",
" X c gray72",
".X c #B9B9B9",
"XX c gray73",
"oX c #BBBBBB",
"OX c #BCBCBC",
"+X c gray74",
"@X c gray",
"#X c gray75",
"$X c #C0C0C0",
"%X c #C1C1C1",
"&X c gray76",
"*X c #C3C3C3",
"=X c gray77",
"-X c #C5C5C5",
";X c #C6C6C6",
":X c gray78",
">X c #C8C8C8",
",X c gray79",
"<X c #CACACA",
"1X c #CBCBCB",
"2X c gray80",
"3X c #CDCDCD",
"4X c #CECECE",
"5X c gray81",
"6X c #D0D0D0",
"7X c gray82",
"8X c #D2D2D2",
"9X c LightGray",
"0X c gray83",
"qX c #D5D5D5",
"wX c gray84",
"eX c #D7D7D7",
"rX c #D8D8D8",
"tX c gray85",
"yX c #DADADA",
"uX c gray86",
"iX c gainsboro",
"pX c #DDDDDD",
"aX c gray87",
"sX c #DFDFDF",
"dX c gray88",
"fX c #E1E1E1",
"gX c #E2E2E2",
"hX c gray89",
"jX c #E4E4E4",
"kX c gray90",
"lX c #E6E6E6",
"zX c #E7E7E7",
"xX c gray91",
"cX c #E9E9E9",
"vX c #EAEAEA",
"bX c gray92",
"nX c #ECECEC",
"mX c gray93",
"MX c #EEEEEE",
"NX c #EFEFEF",
"BX c gray94",
"VX c #F1F1F1",
"CX c gray95",
"ZX c #F3F3F3",
"AX c #F4F4F4",
"SX c gray96",
"DX c #F6F6F6",
"FX c gray97",
"GX c #F8F8F8",
"HX c #F9F9F9",
"JX c gray98",
"KX c #FBFBFB",
"LX c gray99",
"PX c #FDFDFD",
"IX c #FEFEFE",
"UX c white",
/* pixels */
"GXGXGXGXGXGXGXGXGXGXGXGXGXGXGXGXGXGXGXGXGXGXGXGXGXGXGXGXGXGXGXGXGXGXGXGXGXGXGXGXGXGXGXGXGXGXGXGXGXGXGXGXGXGXGXGXGXGXGXGXGXGXGXGX",
"GXGXGXGXGXGXGXGXGXGXGXGXGXGXGXGXGXGXGXGXGXGXGXGXGXGXGXGXGXGXGXGXGXGXGXGXGXGXGXGXGXGXGXGXGXGXGXGXGXGXGXGXGXGXGXGXGXGXGXGXGXGXGXGX",
"GXGXGXGXGXGXGXGXGXGXGXGXGXGXGXGXGXGXGXGXGXGXGXGXGXGXGXGXGXGXGXGXGXGXGXGXGXGXGXGXGXGXGXGXGXGXGXGXGXGXGXGXGXGXGXGXGXGXGXGXGXGXGXGX",
"GXGXGXGXGXGXGXGXGXGXGXGXGXGXGXGXGXGXGXGXGXGXGXGXGXGXGXGXGXGXGXGXGXGXGXGXGXGXGXGXGXGXGXGXGXGXGXGXGXGXGXGXGXGXGXGXGXGXGXGXGXGXGXGX",
"GXGXGXGXGXGXGXGXGXGXGXGXGXGXGXGXGXGXGXGXGXGXGXGXGXGXGXGXGXGXGXGXGXGXGXGXGXGXGXGXGXGXGXGXGXGXGXGXGXGXGXGXGXGXGXGXGXGXGXGXGXGXGXGX",
"GXGXGXGXGXGXGXGXGXGXGXGXGXGXGXGXGXGXGXGXGXGXGXGXGXGXGXGXGXGXGXGXGXGXGXGXGXGXGXGXGXGXGXGXGXGXGXGXGXGXGXGXGXGXGXGXGXGXGXGXGXGXGXGX",
"GXGXGXGXGXGXGXGXGXGXGXGXGXGXGXGXGXGXGXGXGXGXGXGXHXGXHXGXHXGXHXGXwXvXuXjXJXHXHXGXGXHXGXHXGXGXGXGXGXGXGXGXGXGXGXGXGXGXGXGXGXGXGXGX",
"GXGXGXGXGXGXGXGXGXGXGXGXGXGXGXGXGXHXHXHXHXGXHXCXgXBXsXCXaXCXpXqX[.:X.X&XrXwXjXJXMXaXBXpXDXGXGXGXHXGXGXGXGXHXHXGXGXGXGXGXGXGXGXGX",
"GXGXGXGXGXGXGXGXGXGXGXGXGXGXGXGXGXnXnXBXcXHXAXuX1X4XE.qX{.wXI.V.U.F.P.J.B.G.$XjXeX3XvX:XfXSXGXGXxXVXHXGXGXcXMXGXGXGXGXGXGXGXGXGX",
"GXGXGXGXGXGXGXGXGXGXGXGXGXGXGXGXHXqX4XeX>XmXsX-XpXD.2.G.H.b.X.' l.>.a.6.{ t.Y.T.{.mXDXhX&XNXGXmX=XuXFXGXGX3XiXHXGXGXGXGXGXGXGXGX",
"GXGXGXGXGXGXGXGXGXGXGXGXGXGXGXGXGXSX0X<XyX'.+XnXsXA.#.@.{ 8 % = R a H z v O.i.n.t.OXjX$XxXFXVX*XiX<XlXGXGXBXZXGXGXGXGXGXGXGXGXGX",
"GXGXGXGXGXGXGXGXGXGXGXGXGXGXGXGXGXHXVX0X,XqX/. X[.A._ 6 , X   . ; @ = $ % M %.y.z.i.#XpX-XvX;XuX;XqX-XxXHX5XpXHXGXGXGXGXGXGXGXGX",
"GXGXGXGXGXGXGXGXGXGXGXGXGXGX0XjXJXHXfX4XwX#XK.r.*.M 0 X                   : r G 4.4.~.#X(.&XrX,X). X_.jXJXlXnXGXGXGXGXGXGXGXGXGX",
"GXGXGXGXGXGXGXGXGXGXGXGXGXuX5X5XzXKX8X|. Xf.3.D H X                           > k P l.L.z.Y./.Q.Q.%X].jXaX7XcXHXGXGXGXGXGXGXGXGX",
"GXGXGXGXGXGXGXGXGXGXGXFXgX,XqX3X6XnXgX XZ.4.T > B c 7 X                   ; f l 1 : Q j.t.l.r.z.Y.1X{.5X XT.eXHXGXGXGXGXGXGXGXGX",
"GXGXGXGXGXGXGXGXGXGXGXSX>XyX>XwX3X6XvX6XY.z.E $ R E.;.3 .               $ C x.Y.X.: : ` b.0.n.q.v.R.[.^.W.E.eXHXGXGXGXGXGXGXGXGX",
"GXGXGXGXGXGXGXGXGXGXGXCXnX=XaX>X6X3X^.!.v.#.I g ^.ZXwX+.:             o m a.>XAX,X/ O <  .m.4.b.q.A.pXXXE.^.yXHXGXGXGXGXGXGXGXGX",
"GXGXGXGXGXGXGXGXGXGXZX%X}.iXAX-X/.(.E.n.=.I k z.@XFXSX4X] &         . z q.&XCXHXSX^.$ . 6 X.#.-.n.R.`.!.Q.0XAXGXGXGXGXGXGXGXGXGX",
"GXGXGXGXGXGXGXHXGXHXFXgX[. X$Xn.m.v.6.<.R 1 9 w.@XHXKXFX+X8         h 7.P.6XLXKXUX$X&   o 0 ( l d.W.y.6.$XCXHXGXGXGXGXGXGXGXGXGX",
"GXGXGXGXGXHXmXqXNX0XNX0X8X'.T.B.a.d.9.E 0   % k ) ,.<.1.$.;         0 F E | <.<.2._ O $ v m k b >.S.3.L.lXJXGXGXGXGXGXGXGXGXGXGX",
"GXGXGXGXGXHXnX1X0X1X0X1X0X3X].Z.a.f.w.C                                               % N N , $.u.d.>.OXCXHXGXGXGXGXGXGXGXGXGXGX",
"GXGXGXGXGXGXHXmX-XiX=XuX;XtX_.y.g.f.:.Z                                   * ;               $ 0.A.3.1.G.9XCXGXGXGXGXGXGXGXGXGXGX",
"GXGXGXGXGXGXGXGXmX&XsX&XpXOXu.k.p.g.u.v         o = % .                 O M D               + P +.;.M.R.~.pXJXZXCXGXGXGXGXGXGXGX",
"GXGXGXGXGXGXGXDXbXsX-XtXOXQ.F.u.g.0.S :         7 _ R q 7 8 i a a a a p R s.}                 * E d.r.M.T.0XmX8XrXHXGXGXGXGXGXGX",
"GXGXGXGXGXGXHXnX XXXdX@X!.E.u.l.s.C j v         8 } :.C.D.U.eXhXgXgXgXgXjXQ.V . @ O           o U ;.B.w.V.(.`.7XCXGXGXGXGXGXGXGX",
"GXGXGXGXGXGXGXSXcXhX&XiX}.E.J.y.h.6.v *         O i ;.Y._.hXFXJXHXHXHXKXoXE $ 8 ! Z O         o U &.S.J.Y.W.4X5XwXHXGXGXGXGXGXGX",
"GXGXGXGXGXGXGXGXHXDXsX:X/.g.q.;.<.2.M             # x e.(.NXHXGXGXGXJX%X' :   u ~ g H B @     o T a.u.J.5XoX}.6XvXGXGXGXGXGXGXGX",
"GXGXGXGXGXGXGXGXGXSX8X^.k.P k z W T 7               $ B z.MXPXLXLXLX1X@.1 4 b v t - x g & s % . p :.g.d.XX9X5XkXHXGXGXGXGXGXGXGX",
"GXGXGXGXGXGXGXGXAXiX=X!.,.7     i c <                 $ L Z.Y.U.U.U.#.5 > c J h         # M a # . L h.u.S.1XNXHXGXGXGXGXGXGXGXGX",
"GXGXGXGXGXGXGXHXNX=XiXY.| 2       d m *                   . . . . . . & v h               # S r @ K 1.b.Y.W.eXJXGXGXGXGXGXGXGXGX",
"GXGXGXGXGXGXGXGXFXzX_.>.7         . f M @                             m x X                 % F 5 P m.q.V./.wXDXGXGXGXGXGXGXGXGX",
"GXGXGXGXGXGXGXGXmXoXU.&.2           + g N .                           V x   . .             . - @ K ,.n.T.9X2XrXHXGXGXGXGXGXGXGX",
"GXGXGXGXGXGXHXmX:X9Xr.d +             d J .                           V x   q z             O m 2 L l.t.A.|.9XMXGXGXGXGXGXGXGXGX",
"GXGXGXGXGXGXGXCXeX$X&.>               > z s .                       i x < 7 b 0   ; h O     X t - K r.h.K.-XbXHXGXGXGXGXGXGXGXGX",
"GXGXGXGXGXGXGXCXtX#X*.>                 y I X                       a x > l A   * j z o O y a & w ~ @.Z.Q.iXJXGXGXGXGXGXGXGXGXGX",
"GXGXGXGXGXGXHXmX;X9X:., , #     : -     t P X                         V z j Z   q Y O   * ) T , m { @.C.|.jXHXGXGXGXGXGXGXGXGXGX",
"GXGXGXGXGXGXDXBXbX~.@.3 P 8   # n x @   t P X                         V l j Z   q Y O   * Q 1   - Y :.D.sXCXZXGXGXGXGXGXGXGXGXGX",
"GXGXGXGXGXGXkX*XlXQ.@.3 Y 9   M j l x X u H X                         M z k C . 0 P #   * W > X G $.M.E.aX2XuXHXGXGXGXGXGXGXGXGX",
"GXGXGXGXHXlX;XiXoXI.@.3 U 9   S h $ l W V >                           * v v h c @ y Z O * W > X T g.e.D.{.wXVXGXGXGXGXGXGXGXGXGX",
"GXGXGXGXGXBXeX$XQ.L.+.2 U 9   S h   j R 5                               m m s H   6 R > m i % v w.s.z.>X|.uXJXGXGXGXGXGXGXGXGXGX",
"GXGXGXGXHXMX8X4X>XE.i.S ^ 8   A L g _ #.q                               8 c P G   6 _ b l @ + ! y.g.U.,X6XcXHXGXGXGXGXGXGXGXGXGX",
"GXGXGXGXHXxX>XhXBX-XW.i.5.m 9 ` >.:.f.i.E 4 .                             e L M e s J V @ X 0 ( 3.z.Y.OXcXHXGXGXGXGXGXGXGXGXGXGX",
"GXGXGXGXGXHXxX;XCXkXoX!._.u.;.k.i.l.v.,.;.P X                             .   9 ~ A O . X 3 ) ,.Z.d.Q.pXAXGXGXGXGXGXGXGXGXGXGXGX",
"GXGXGXGXGXGXFXAXMX%XjX@XiXOXY.s.x.R.R.I.z.I O + .                             X # +     & ! #.m.R.T.yX=XhXHXGXGXGXGXGXGXGXGXGXGX",
"GXGXGXGXGXGXGXGXDXmXSXvX*XiX#X,X%XE.Q.m.;.P 4 D @                                       * _ +.,.Z.d.W.aXSXGXGXGXGXGXGXGXGXGXGXGX",
"GXGXGXGXGXGXGXGXGXHXAX1XrXCXxXVX2XE.m.p.a.] E ! #                                       * ` $.h.t.l.R.kXHXHXGXGXGXGXGXGXGXGXGXGX",
"GXGXGXGXGXGXGXGXGXHXSXuXVXHXHXpX6X@XZ.s.d.t.#.{ d .                                     + h } r.f.f.I.kXJXuXkXHXGXGXGXGXGXGXGXGX",
"GXGXGXGXGXGXGXGXAXdXCXfXCXHXGXrX6X7XXXC.p.i.O.O.^ 0 .                                     $ ^ @.C.b.|.wXBXrXgXHXGXGXGXGXGXGXGXGX",
"GXGXGXGXGXGXHXDXdX=XiX-XiXAXJXJXqX6X1XP.l.2.3.<.@.! 7 < X                                 $ / #.j.H.0X:XrXkXBXGXGXGXGXGXGXGXGXGX",
"GXGXGXGXGXGXZXpX>XrX>XrX,XyXhXhXMXiX}.B.f.T.P.c.2.o...! $                                 @ A  .3.1._.rX<X$XfXHXGXGXGXGXGXGXGXGX",
"GXGXGXGXGXHXxX&XsX%XaX.XyXOXQ.!.6XMX3XR.R.Q.D.0.l.-.+._ 3 - - - o                           # ! c.p.;X*XgXFXFXGXGXGXGXGXGXGXGXGX",
"GXGXGXGXGXGXFXkX$XdX XQ.(.!.W.W.^._.^.!.^.~.E.C.y.v.%.o.] ' ] _ 8                           + W =.l.i.1XSXGXGXGXGXGXGXGXGXGXGXGX",
"GXGXGXGXGXGXGXDXgXOX!.W.W.W.W.W.W.E.E.$XxXwX!.R.c.e.x.$.O.+.+.O.^ 5                         + W +.,.b.k.0XJXGXGXGXGXGXGXGXGXGXGX",
"GXGXGXGXGXGXHXMX1X0X(.E.E.W.W.E.E.E.E.'.eXhX~.L.s.k.u.h.-.f.*.O.a.[ A D w                   X q / @.7.l.[.=XgXHXGXGXGXGXGXGXGXGX",
"GXGXGXGXGXGXGXBX7X7X3X_.=X'.R.%X.XOX+X}.6X;XP.f.s.f.s.f.d.f.d.d.J.0.9.4.U 6                   . p ( +.t.J.$XzXHXGXGXGXGXGXGXGXGX",
"GXGXGXGXGXGXGXHXVX<XrX<XbX7X%X0X4X6X8X4X2XW.F.a.C.y.l.r.z.r.v.Y.W.g.h.s.,.K <                   . J +.O.M.pXJXGXGXGXGXGXGXGXGXGX",
"GXGXGXGXGXGXGXGXDXjX*XnXHXFXFX5XuXeX0XdX'.^.].W.W.S.r.F.w.F.e.F.W.E.s.h.d.=.G , < - O ; O ; O ; @ K >.%.H.hXBXVXGXGXGXGXGXGXGXGX",
"GXGXGXGXGXGXGXFXcX$XvXGXGXGXGXSXDXSXSXSXeX%XpX_.!.^.T.E.Y.E.Q.Q./.!.T.a.f.f.O.{ ..E r Y 6 J 7 F q J b.9.*XFX5XeXHXGXGXGXGXGXGXGX",
"GXGXGXGXGXGXHXnX&XzXFXGXGXGXGXGXGXGXHXaX>XyX=XuX%XtX~.Q.Q.).iXXXeX@XW.I.s.s.g.O.5.A.g.@.W r J t S g | M.(.dXVXCXGXGXGXGXGXGXGXGX",
"GXGXGXGXGXGXGXZXkXDXGXGXGXGXGXGXGXGXGXNX0X,XeX>XwXXX].pXfXaX:XrX,XwX+XE.G.G.K.M.S.W.T.B.n.9.+.U a A f.U.s.>XKXHXGXGXGXGXGXGXGXGX",
"JXJXJXJXJXJXJXJXKXJXHXHXHXGXGXGXGXGXGXHXnXaXBX9X4X8XuXFXJXDXuXBXaXmXgX9XqXqXqX-X{.>X'.2X'.4X Xv.I z 2.K.`.fXaXgXHXGXGXGXGXGXGXGX",
"IXIXIXIXIXIXIXIXIXIXIXPXPXPXLXLXLXLXLXJXHXHXHXNXrXGXHXGXGXGXHXGXHXGXHXHXHXHXJXzXwXnX3XqX4XZXGX7XT.X.,.H.2XyX2XdXHXGXGXGXGXGXGXGX",
"UXUXUXUXUXUXUXUXUXUXUXUXUXUXUXUXUXUXUXPXHXGXGXGXGXGXGXGXGXGXGXGXGXGXGXGXGXGXGXGXGXHXnX>XCXGXGXGXGX5XoXoXoXoXsXHXGXGXGXGXGXGXGXGX",
"KXKXKXKXKXKXKXKXKXKXKXKXKXKXKXKXKXKXKXJXHXGXGXGXGXGXGXGXGXGXGXGXGXGXGXGXGXGXGXGXGXGXFXSXGXGXGXGXGXDXAXAXAXAXFXGXGXGXGXGXGXGXGXGX"
};
