/* XPM */
static char *_a21251ec3f240e39cf027e4b13c39ea[] = {
/* columns rows colors chars-per-pixel */
"64 64 18 1 ",
"  c #750101",
". c #7C0101",
"X c #840000",
"o c #8C0000",
"O c #930000",
"+ c #9B0001",
"@ c #A30000",
"# c #AC0001",
"$ c #B40001",
"% c #BB0100",
"& c #C30001",
"* c #CB0101",
"= c #D30001",
"- c #DB0000",
"; c #E30001",
": c #EB0001",
"> c #F40100",
", c #FC0201",
/* pixels */
"   ...XXXXooOO++@@##$$$%%%&&%&&&&&&&&%%%$$$$##@@++OOoooXX....   ",
"    ..XXooOOO++@@###$$$%%&&&&&&&&*&&&&&%%%$$###@@++OOooXXX...   ",
"  ...XXXXooOO+@@##$$$%&&&&&&********&*&&&%%$$###@++OOOooXX...   ",
".  ..XXXoOOO+@@@##$%%%&&****=*===******&&&%%%$$##@@+OOOooXX..   ",
"  ..XXXooOO++@@##$%%&&****============***&&&%%$$##@@+OOooXXX..  ",
" ....XooOO++@##$$%%&&&**======----=======**&&%$$##@@++OOoXXX... ",
"....XXooOO++@#$$%%&****===----------=--==**&&&%$$##@@++OOoXXX.. ",
" ..XXooOO+@@##$$%&&***==-=---;;--;-;---====**&&%$$##@++OooXXX...",
"..XXXoOOO+@@#$$%&&**===---;-;;;;;;;;-;---===**&&%%$#@@+OOooXX...",
"..XXoooO+@@#$$%&&**==----;;;;;::;:;;;;;---==***&%%$##@++OOoXXX..",
".XXXooO++@##$%%&&*==---;;;;::;:::;:::;:;;---==*&&%%$#@@++OooXXX.",
".XXooOO++@#$$%&&**=---;-;:::::::::::::;;;;---==*&&%$$#@++OOoXXX.",
"XXXooO++@@$$%%&**==---;;;::::>::::::::;;;;-;-===*&&%$##@++OoXXXX",
".XXoOO++@#$$%&**==--;;:::::>:>>::>>:::::::;;--==**&%$$#@++OOoXXX",
"XXooOO+@##$$%&**=--;;;:;::>>>>>>>>>>>:::::;;;---**&%%$#@++OooXXX",
"XXooOO+@##$%&**==-;;;:::>:>>>>>>>>>>>>>>:::;;--==*&&%$##@++OOXXX",
"XXooO++@#$%&&*===-;;::::>>>>>>>>,>,>>>>>::;:;;--=**&%%$#@++OOoXX",
"XXoO++@##$%%&*==-;;;:::>>>>>>>>>>>>>>>>>>>::;;;--=*&&%$#@@+OoooX",
"XooO++@@#$%&**=--;;::::>>>>>,,,,>,>>>>>>>:>::;;;-***&%$$#@++OooX",
"XooO++@#$%%&*==-;;;::>>>>>>,,>>,>,,,,>>>>>:>:;;---**&&$##@++OooX",
"XXOO++##$%&**=--;;:::>>>>>,,,,,,,,,>,,>>>>>:::;;--=**&%$#@@OOOoX",
"ooOO++##%%&**=--;;::>>>>,,>,,,,,,,,,>,,>>>>>::;;---*&&%$$#++OOoX",
"XoOO+@##$%&*==-;;:::>>>>,>,,,,,,,,,,,,,>>>>:>::;;-==*&&%##@+Oooo",
"ooOO+@##%%&*=---;:::>>>,>,,,,,,,,,,>,,>,,>>>:::;---**&&$###++Ooo",
"ooOO+@#$%%**=--;;::>>>,,,>,,,,,,,,,,,,,,,>>>>::;;--=**&%$#@@+Ooo",
"XOO+@@#$%%**==;;::>:>>>,,,,,,,,,,,,,,,,,,>>>:::;;--=*&&%$#@+OOoX",
"ooO++@#$%&*==-;;;::>>>>,,,,,,,,,,,,,,,,,,>>>>:::;--==*&%$$@@+OOo",
"oOO+@@$$%&**=-;;::>>>>,>,,,,,,,,,,,,,,,,,,>>>:::;;-==*&%$##++Ooo",
"oo+++##$%&*==--;::>>>>,,,,,,,,,,,,,,,,,,,>>>>>::;---=*&%$##++Ooo",
"oOO+@@#$&&*==-;;:::>>>>,,,,,,,,,,,,,,,,,,,>>>:::;;-==&&%$##@+OOo",
"oOO++@#%%&*==--;::>>>>,,,>,,,,,,,,,,,,,,,>,>>:::;;--=*&%$$#++OOo",
"oOO+@#$$%&*=--;:;>:>>>>,,,,,,,,,,,,,,,,,,,>>>::::;-==*&%$$#@+Ooo",
"oOO+@#$$%&*=--;;:>>>,:>,,,,,,,,,,,,,,,,,,>,,>::::;--=&&&$$#++OOo",
"oo+++##%%&*=--;;:::>:>,>,,,,,,,,,,,,,,,,>,,:>:::;;;==*&%$##@+OoO",
"oOO+@#$$%&**=-;;:::>,,,,,,,,,,,,,,,,,,,,,,>>>>::;;-==*&%%$@+++Oo",
"ooO++@#$&&*==-;;::>:,:,,,,,,,,,,,,,,,,,,,,>>>:::;-;=***%$##@+Ooo",
"ooO+@@#%%&**---;:::>>>,,,,,,,,,,,,,,,,,,,>>>>:::;;--**&%$$#++OOo",
"oOO++##$%&**=-;;;:>>:,,,,,,,,,,,,,,,,,,,,>>>>:::;--=**%%$#@@OOOo",
"ooO++@#$%%**=-;;:::>,:>>,,,,,,,,,,,,,,,,,>>>>::;;--=**&%$#@++Ooo",
"ooOO+@#$%&**==;;;:>:>:,>,,,,,,,,,,,,,,,,,>>>>:::;;==**&%$##++Ooo",
"ooOO+@#$%%&*=--;;:::>>>>,>,,,,,,,,,,,,,,,>>>:::;;--=*&&$##@++Ooo",
"XoOO+@##%%&*==-;;:;:>>>>>,,,,,,,,,,,,,,>>>>:>:;;;-==*&%%##++OOoo",
"XooO+@##$%&**=--;;::>>>>,>>,,,,,,,,,,>,,>>>::;;;--=**&%$##@+OOoX",
"ooOO++##$%&&*=---::::>>>>>,,>,,,,,,,,>>>>>>>::;;-==*&&%$#@++Oooo",
"XooOO@@#$$&&*==-;;;:::>>>>,>>,,,>,,>>>>>>>:::;;--==*&&$$#@++OoXo",
"XooOO+@#$$%&*==--;;::>>>>>>,,,>,>,,>>>>>>::::;;--=**&%%###++OoXX",
"XXooO+@@#$%&&**---;;:::>>>>,>>>>>>>,,>>>::::;;;--***&%$#@++OooXX",
"XooOO++@#$$%&**=--;;;:::>>>>>>>>>,>>>>>>>:::;;--=**&%$$#@++OOooX",
"XXXoO++@##$%&**==-;;;::::>>>>>>>>>>>>>:::::;:--==**&%$$#@++OooXX",
"XXooOO+@@#$%%&**=---;;:::::>>>>>>>>>>>::::;;---==*&%%$#@@+OOoXXX",
"X.XoOO++@#$$%&**==--;;;;:::::>:>:>>:::::::;---==*&&%$##@@+OOoXX.",
".XXooOO+@##$%%&**==-;;;;;::::>::::::::::;;;--==**&&%###@+OOooXXX",
".XXXoOO++@##$%&&**==---;;:::::::::::::;;-;---==**&%$$##++OOoXXX.",
".XXXooO++@##$%%&**==---;;;;:;:::::::;:;;;---=***&%%$##@+OOooXX..",
"...XooOO+@@##$%&&&*===--;;;;;;:;::;;:;;---===**&%%$##@++OOooXXX.",
"..XXXooOO+@@#$$%&&**==------;;;;--;;-;---===**&&%$$#@@++OOoXX...",
"..X.XooOO++@@#$%&&&**===-----;;--;-;----===**&&%$$##@++OoooXXX. ",
"  .XXXooO++@#@#$$%&&**====----;;-----=-==***&%%%$$#@@+OOOoXX....",
" ..XXXXooO++@@#$$$%&&&**==-===-----====****&&%%$##@@++OOooXX..  ",
". ...XXooO+++@##$$%%&&&***=*=*=========***&%%%$###@++OoooXX.... ",
"   ..XXXooO+++@@##$$%%&&*****=*==*=*****&&&%%$##@@@+OOOooXX...  ",
"    ..XXooOO++@@##$$%%%&&&***********&&&&%%%$###@@++OOooX.XX..  ",
"  . ..XXXooOO++@@###$$%%%&%&&&&&&&&&&&%%%%$$$#@#+++OoooXXX..    ",
"   ...XXXXoOOO++@@@##$$%%%%%&&&&&&&&%&&%%$$$#@#@+++OOoXXXX..    "
};
