/* XPM */
static char *_523ff50c5e74a2fe27be7eb2a5ec68eKCNNDuYtibINLtyM[] = {
/* columns rows colors chars-per-pixel */
"64 64 253 2 ",
"   c #000000",
".  c #0B030B",
"X  c #090608",
"o  c #0E0712",
"O  c #120514",
"+  c #16071B",
"@  c #1C0D1B",
"#  c #170918",
"$  c #1F121B",
"%  c #0F0F11",
"&  c #25161F",
"*  c #1A0B23",
"=  c #19172A",
"-  c #1B1D35",
";  c #271828",
":  c #271739",
">  c #341B36",
",  c #210C28",
"<  c #172A3B",
"1  c #083938",
"2  c #183638",
"3  c #0D2A2D",
"4  c #282829",
"5  c #272C36",
"6  c #372436",
"7  c #283736",
"8  c #363536",
"9  c #2B312D",
"0  c #443D3D",
"q  c #05423C",
"w  c #05443B",
"e  c #17413E",
"r  c #2C463E",
"t  c #46433F",
"y  c #2E1D45",
"u  c #311E41",
"i  c #1C2C44",
"p  c #1F2740",
"a  c #093A41",
"s  c #173647",
"d  c #173D52",
"f  c #292347",
"g  c #332C4B",
"h  c #383D67",
"j  c #452C45",
"k  c #423048",
"l  c #024445",
"z  c #044B4C",
"x  c #084747",
"c  c #154647",
"v  c #02504D",
"b  c #174756",
"n  c #025354",
"m  c #035C5B",
"M  c #08595A",
"N  c #135758",
"B  c #0D4F4E",
"V  c #2A4544",
"C  c #375756",
"Z  c #2F5050",
"A  c #02615E",
"S  c #065D61",
"D  c #184B60",
"F  c #315273",
"G  c #036464",
"H  c #026A64",
"J  c #026C6B",
"K  c #086666",
"L  c #02726D",
"P  c #0D736C",
"I  c #076E71",
"U  c #027373",
"Y  c #037B7B",
"T  c #057876",
"R  c #197674",
"E  c #1B6A69",
"W  c #236A6A",
"Q  c #2E7170",
"!  c #316058",
"~  c #494947",
"^  c #55544F",
"/  c #5A5B5B",
"(  c #4D4B5A",
")  c #545264",
"_  c #675A6E",
"`  c #4D6465",
"'  c #4E7875",
"]  c #676768",
"[  c #68797A",
"{  c #767678",
"}  c #736C70",
"|  c #51665E",
" . c #BC0001",
".. c #B40202",
"X. c #AD2A2B",
"o. c #B12629",
"O. c #A33837",
"+. c #CD0101",
"@. c #C00002",
"#. c #D30001",
"$. c #D80102",
"%. c #C60F11",
"&. c #E30000",
"*. c #EA0002",
"=. c #FA1316",
"-. c #F81417",
";. c #FA0D0E",
":. c #FB3636",
">. c #FA3837",
",. c #ED2827",
"<. c #D52723",
"1. c #9A433C",
"2. c #8C5455",
"3. c #B44545",
"4. c #8F7276",
"5. c #A7686C",
"6. c #FC4B4B",
"7. c #EE4B48",
"8. c #F96E6E",
"9. c #FB6468",
"0. c #FA6F72",
"q. c #F9625D",
"w. c #03827D",
"e. c #6B837E",
"r. c #355B89",
"t. c #047E80",
"y. c #087F81",
"u. c #1A748B",
"i. c #3A628C",
"p. c #6A748C",
"a. c #8C7B8A",
"s. c #028383",
"d. c #038B85",
"f. c #048C8B",
"g. c #088889",
"h. c #02918D",
"j. c #078F92",
"k. c #039493",
"l. c #019B9B",
"z. c #089999",
"x. c #188983",
"c. c #308A8C",
"v. c #04A39D",
"b. c #0E9AA2",
"n. c #03A4A3",
"m. c #08A4A2",
"M. c #03AAA5",
"N. c #04AEAE",
"B. c #09A9AC",
"V. c #04B1AC",
"C. c #0AACB4",
"Z. c #16A6B6",
"A. c #02B4B3",
"S. c #03BDBC",
"D. c #07BAB8",
"F. c #15B8BC",
"G. c #17ACAE",
"H. c #23B5BE",
"J. c #28A7AF",
"K. c #3FA19F",
"L. c #498889",
"P. c #728E91",
"I. c #6DA7A6",
"U. c #5EB2AF",
"Y. c #03C3BD",
"T. c #1EC5BF",
"R. c #07BEC1",
"E. c #14BEC4",
"W. c #2ABCC6",
"Q. c #63ACD2",
"!. c #02C3C3",
"~. c #02CCCB",
"^. c #0AC7C8",
"/. c #14C6C5",
"(. c #06D4CE",
"). c #05CFD2",
"_. c #04D4D2",
"`. c #05DCDC",
"'. c #08D9D7",
"]. c #16D8D8",
"[. c #10CEDA",
"{. c #29CDD2",
"}. c #04E2DA",
"|. c #19E2DE",
" X c #19E3E3",
".X c #0EEAEC",
"XX c #39EAE8",
"oX c #2DF1F1",
"OX c #1FE2E0",
"+X c #55D1CF",
"@X c #70D1CF",
"#X c #47E8E6",
"$X c #55F7F5",
"%X c #52EAE9",
"&X c #79FAF8",
"*X c #69F5F3",
"=X c #60E7DE",
"-X c #888687",
";X c #8B9696",
":X c #9E9C9B",
">X c #979796",
",X c #8E8F8F",
"<X c #A29B9B",
"1X c #B58C92",
"2X c #9AA69B",
"3X c #939EA1",
"4X c #AD99A7",
"5X c #93AFAB",
"6X c #AEA1AC",
"7X c #A7A9A7",
"8X c #A8B5B6",
"9X c #AFAFB3",
"0X c #A1A39E",
"qX c #F98E8F",
"wX c #FD8E91",
"eX c #FB9392",
"rX c #FE908E",
"tX c #C9AFB0",
"yX c #F5B1AE",
"uX c #C78685",
"iX c #ADC1BA",
"pX c #E4C7B9",
"aX c #A6BFC2",
"sX c #E2BDC0",
"dX c #89D9D7",
"fX c #90CFCD",
"gX c #AACBCB",
"hX c #B3D0D0",
"jX c #B6E1DB",
"kX c #8BEAE9",
"lX c #84F9FA",
"zX c #97FBF9",
"xX c #99E8E7",
"cX c #A8EEEB",
"vX c #B8E8E7",
"bX c #A8FBF9",
"nX c #B4FFFD",
"mX c #BBFEFD",
"MX c #B6F7F8",
"NX c #C3C4C5",
"BX c #C9D3D5",
"VX c #D2D1CF",
"CX c #E6C5C5",
"ZX c #F3D5D2",
"AX c #C8E1DD",
"SX c #CCFCFC",
"DX c #C6F9F6",
"FX c #D6FCFA",
"GX c #D1EBE9",
"HX c #E9E8E8",
"JX c #E5FAF9",
"KX c #FBFBFA",
"LX c #F8DFE4",
/* pixels */
"                      # j                                     y .                                                               ",
"                    # -XiX      X f                       X $ J.( *                                                             ",
"                    p.FX;       X [.+                 . $ ~ 2XQ I.8X_ >                                                         ",
"                  # NXlX;       X W.O               . 8 7X9X9XK.hXFXbX@X6                                                       ",
"                  p.SXoX@XX     f [.F               s L.2X<X,XdXbXvXDXlX5XX                                                     ",
"                  8XnXoXoX%     Z.}.E.o             s L Q e.>XVXcXkXvXMXhXX                                                     ",
"                  6XmX X|.i.    u.'.R.X           o < q C P.;XNXNXxXxXcX9X/ X                                                   ",
"                  6XnX XA.].i.h H.`.R.F           6 E n e.5X^ 7X4.hXzX$X+X=X:                                                   ",
"                  6XmX XS.N.}. X X.XS.`.r.        4 R d.u.5X~ 7X] gXjX%X&X+X@                                                   ",
"                  6XmX XS.N.!.~.~.`.S.R.`.+       ; J s.Z :X~ 7X] gX;X+XmX5X#                                                   ",
"                  6XmXOXA.^.`.^.D.`.S.M.S.r.      O Z w.V <X~ 7X] hX,X{.mX( .                                                   ",
"                  6XnX X!.).A.d.k.'.S.l.n.`.+       6 x.R 0X^ 7X{ hXgX@XgX.                                                     ",
"                  6XnX X`.B.w.n.S.`.S.r.g.Y.+       ; e.L.5X;XNX9XBXvX8X{ .                                                     ",
"                  6XmX X_.f.d.l.l.'.F.* g B.+       % | ,X,X0X7X9X7X-X<X^ X                                                     ",
"                  6XnX XN.d.f.i B _.E.+   =       . $ ~ ] ] a.<X<X7X0X9X,X> & & ; #                                             ",
"                  9XnX Xl.d.p   b _.F.u O   . O V Q W 7 0 0 { 7X9XVXNX7XVXKXBXjXBX-X0 > #                                       ",
"                  P.mX%Xj.i     b _.S.W ! ~ ! H h.l.l.R W W c.P.3X5X8XBXJXKXFXzXvXfX@XDXiXg                                     ",
"                  ; aXbXc.O     b _.S.k.w.Z K d.s.d.n.A.(.`.`.@XDXSXJXSXmXJXKXSXDXW.^.zXKXHX6                                   ",
"                    5XMXH..   + N _.Y.B.l.v G t.s.k.N.~.~.`.!.N.jXMXFXJXmXSXKXHXHXfX/.#XJXKX2X#                                 ",
"                    P.MX+X.   d T (.S.x.Q z A I s.k.N.^._.`.!.l.fX&XSXKXGXvXHXVXtXLXdX^.kXJXBX#                                 ",
"                    ; gX]     b T (.D.[ { c n J s.z.N.~._.(.Y.J.8XdXGXHXVXNX8X1X7.qXKXfX+XDXxX,                                 ",
"                      P.P.    s L ).S.Q ( c c A s.l.A.!.!.D.z.I.6X9X7X0X1XuX5.<.,.6.yXLXlXlX&XQ.>                               ",
"                      ; _   + a U (.R.n 1 l 7 B I g.z.m.B.n.G [ >X5.2.2.%.$.*.=.>.6.q.yXKX+XfXQ.p..                             ",
"                            = a J (.R.t.H z 9 V n A A J I A b [ :XX. ...+.#.&.-.>.6.0.eXZX,X} + X X                             ",
"                              < U (.R.D.j.z % 4 2 1 1 1 q 2 7 [ 3Xo. . .+.#.*.-.>.6.8.rXZXhX7X@                                 ",
"                              < L (.Y.A.f.1 . X 9 8 1 z G z 1 [ <XX. . .+.#.&.-.:.6.0.wXZXSXhX#                                 ",
"                            O c L ~.S.n.f.n   o 5 ~ B H d.H e [ 0XX. . .+.#.&.-.>.6.0.rXZXSXjX+                                 ",
"                            s Y T OX{.n.k.H   % 7 ~ N J w.H 7 { <XX. . .+.#.&.-.>.6.8.rXZXxXMX_                                 ",
"                          . 1 J Y +XzX#XR.d     9 V N G Y G 7 } :XX. . .#.#.&.=.>.6.0.rXyX@X+XbX}                               ",
"                          i l K z.N.zXbXW.      5 Z N n G m 2 { :XX. . .+.#.&.=.>.6.0.rXsXbX{.+XSXg                             ",
"                          < l H k.n.=XlXT.* X . 5 C K K K G s } <XX. . .+.#.&.=.>.6.8.wXsXXXA.P.BXj                             ",
"                          < l L l.A.*XmXL.X   i ! R f.n.n.t.l [ <XX. . .+.#.&.-.>.6.8.eXpXU.s.I.VX>                             ",
"                          = 1 m y.N.#XkX    3 n J d.n.D.S.s.z { <XX. . .+.#.&.=.>.6.8.rXCX3X! P.a.#                             ",
"                            - l z j.n.v.O   = x G s.l.M.n.w.m L.<XX. . .+.#.&.=.>.6.8.rXCXL.| k .                               ",
"                              f J J L b       = 1 v v M G S M e.<XX. . .+.#.&.=.:.6.0.rXZX/ >                                   ",
"                                b Y g.+       @ l l l l s 7 4 { 0Xo.@. .+.#.&.=.>.6.8.eX,X@                                     ",
"                                b M.D.#       $ 1 n N G Z V 9 ] >X1... .+.#.&.-.:.6.9.pX;                                       ",
"                                b _.E.#       $ w n ` W U G V ; } ;Xo. .+.+.&.-.:.6.8.pX;                                       ",
"                                b _.R.+       @ q n ` W s.T C 4 / 7X3...#.$.&.-.:.6.qX4X#                                       ",
"                                b !./.*       @ q n ` R t.I C c < | -XO.+.#.&.-.:.q.4.@                                         ",
"                                c A.[.+       @ w n ` W s.T Z x 9 x e.P.3.#.&.=.7.4.O                                           ",
"                                s M.^.+       $ w n | W t.Y m l 9 x H e.;X3.,.,.2.@                                             ",
"                                < v.^.*       $ 1 v Q R s.U S l < B J U U I.5X@X@                                               ",
"                                a h.^.+       @ x n j.k.s.U S l 1 n G U h.A.{.XXy                                               ",
"                                2 d.C.+     . & n L S.V.h.T A x 1 m J Y z.Y.*XmX;                                               ",
"                                = U C.o     = q M f.~.!.D.l.T V 1 G U t.k.~..X&Xk                                               ",
"                              . 1 x.W.f     < v H g.T.^.V.C.d.V B J s.d.k.A.). X&X;                                             ",
"                              d N.$X*XF.o   = 1 v n n K H K A 7 c K Y Y Y t.y.d.b.:                                             ",
"                              5 z.(.'.Z.X     * 1 l z l B z z 4 1 l m S m J y.b.*                                               ",
"                              X D d.H.f         s J L L k.v.j.2 x J U s.f.Z.[.g                                                 ",
"                              d V.}.$XF.O       s J U G.~._.C.2 c Y d.n./.%XOXy                                                 ",
"                              f l.(.`.Z.O       p S J =X|.}.G.e x T s.S.cXbX Xf                                                 ",
"                              X b j.F.5           i J [.OX(.B.2 a J Y /.DXzX'.y                                                 ",
"                              i B.].$XH.o         i L d.@X#Xl.2 x H Y =XSX+XF.,                                                 ",
"                              p v.(.`.Z..         < H z.b.j.g.2 x J Y F.(.(.y                                                   ",
"                              X b j.F.:           = x s.D.V.k.V 2 G U k.~.`.:                                                   ",
"                              s M.`.$XT.o           < d.z.h.g.c 1 z K A..XE.*                                                   ",
"                              f n._.'.G..           s Y C.D.Y 7 1 v G B.].r.                                                    ",
"                              X b h.F.>         X i L Y w.d.T 7 2 l x M s.F.g                                                   ",
"                              s n.].$XH.O       i f.v.]. XB.Y 2 1 A T s.V.oXDX>                                                 ",
"                      4 9 9 4 c v.]..XD.7 4 9 c h.A.%XzXoXY.I 7 2 G U j.Y.XX$XSX0                                               ",
"      ; 4 4 4 ; ; 4 & 4 ~ 8 8 9 B d.v.c 4 9 c j.^.$XzX&X].A.H 5 1 n J g.N.^.XXSXMXu                                             ",
"  4 9 4 ^ ^ ~ ~ ~ 8 0 8 9 9 4 ; N b.3 . X X m D.#XzXXX/.w.E V 9 % 3 v H f.M.^.XXnXlXu                                           ",
"  4 / / / | ^ ~ ~ t g 8 8 8 8 9 7 8 9 8 9 9 M I I P I c Z ) / ^ 9 4 % 3 G I g.k.G.^.y                                           "
};
