/* XPM */
static char *_7f6ccc6016d43b8c8b157d129faba7f[] = {
/* columns rows colors chars-per-pixel */
"64 64 212 2 ",
"   c None",
".  c #010101",
"X  c #02060A",
"o  c #06090C",
"O  c #0B0B0B",
"+  c #140407",
"@  c #010B12",
"#  c #020F18",
"$  c #06121A",
"%  c #131313",
"&  c #1C1C1C",
"*  c #1A1019",
"=  c #110E10",
"-  c #270506",
";  c #370C0F",
":  c #3E191F",
">  c #3A0B12",
",  c #031524",
"<  c #041B2C",
"1  c #031827",
"2  c #041E32",
"3  c #0C1F33",
"4  c #2A1C28",
"5  c #1E2121",
"6  c #1A242B",
"7  c #05243C",
"8  c #062338",
"9  c #232323",
"0  c #2C2C2C",
"q  c #282726",
"w  c #362434",
"e  c #3A2739",
"r  c #3A2738",
"t  c #333333",
"y  c #3C3C3C",
"u  c #2D3030",
"i  c #560203",
"p  c #470A0A",
"a  c #790303",
"s  c #6E0E0D",
"d  c #4A3E3E",
"f  c #4D2C36",
"g  c #6C3235",
"h  c #052740",
"j  c #052943",
"k  c #052E4C",
"l  c #0F2F47",
"z  c #163247",
"x  c #053252",
"c  c #07365A",
"v  c #07385E",
"b  c #09385C",
"n  c #123955",
"m  c #32384D",
"M  c #083D66",
"N  c #083C65",
"B  c #51364E",
"V  c #5D3F5A",
"C  c #533851",
"Z  c #1F435B",
"A  c #39474E",
"S  c #3B4B55",
"D  c #374D5A",
"F  c #08416C",
"G  c #06416C",
"H  c #124469",
"J  c #0A4B7D",
"K  c #094674",
"L  c #2A4C63",
"P  c #444444",
"I  c #4B4B4B",
"U  c #4B4446",
"Y  c #535353",
"T  c #5B5B5B",
"R  c #564856",
"E  c #775454",
"W  c #425865",
"Q  c #545D63",
"!  c #684665",
"~  c #734F71",
"^  c #764F72",
"/  c #54626A",
"(  c #476373",
")  c #636163",
"_  c #696969",
"`  c #7B6576",
"'  c #747474",
"]  c #7B7B7B",
"[  c #757A7A",
"{  c #6D787D",
"}  c #880204",
"|  c #930404",
" . c #9A1112",
".. c #B90202",
"X. c #BB1919",
"o. c #A70D0D",
"O. c #BC3333",
"+. c #8B1624",
"@. c #C60000",
"#. c #DA0405",
"$. c #DA0E18",
"%. c #DB191F",
"&. c #EA0101",
"*. c #EA080E",
"=. c #E40000",
"-. c #F40303",
";. c #FC0000",
":. c #F30A0A",
">. c #FC1515",
",. c #E21919",
"<. c #C81C2E",
"1. c #FB2626",
"2. c #CA2828",
"3. c #922F4D",
"4. c #823E67",
"5. c #AB2A45",
"6. c #B95959",
"7. c #8B6464",
"8. c #FC5050",
"9. c #D8676F",
"0. c #FE6363",
"q. c #CB5A69",
"w. c #0A4F83",
"e. c #0B5186",
"r. c #0B558C",
"t. c #0C5994",
"y. c #0D5E9B",
"u. c #0B5790",
"i. c #0A609F",
"p. c #0D62A3",
"a. c #0E68AC",
"s. c #0E6BB3",
"d. c #0F6FB8",
"f. c #0F71BC",
"g. c #1C73BF",
"h. c #3B63A4",
"j. c #2C6BB1",
"k. c #2B67AC",
"l. c #5A538A",
"z. c #4C5A96",
"x. c #5F7E90",
"c. c #507489",
"v. c #0F75C2",
"b. c #0E7BCC",
"n. c #1076C5",
"m. c #1078C7",
"M. c #1079CA",
"N. c #1C74C1",
"B. c #8A5D86",
"V. c #91628D",
"C. c #9A6796",
"Z. c #886C85",
"A. c #A46D9E",
"S. c #A971A5",
"D. c #B378AF",
"F. c #5B8197",
"G. c #62889E",
"H. c #6C95AD",
"J. c #6490A5",
"K. c #729EB7",
"L. c #678EA5",
"P. c #75A1BB",
"I. c #7BACC9",
"U. c #848484",
"Y. c #8A8A8A",
"T. c #878C8C",
"R. c #959595",
"E. c #9B9B9B",
"W. c #949798",
"Q. c #BA8D8D",
"!. c #9FA09F",
"~. c #A2A2A2",
"^. c #ABABAB",
"/. c #BBBBBB",
"(. c #B4B4B4",
"). c #B7A8A8",
"_. c #FD8C8C",
"`. c #FF9191",
"'. c #DFB1B1",
"]. c #E0A4A4",
"[. c #81B2CE",
"{. c #86B8D6",
"}. c #CE8BC9",
"|. c #E499DD",
" X c #EC9EE4",
".X c #E79CE1",
"XX c #EDA1E8",
"oX c #FEAAF6",
"OX c #FFACF9",
"+X c #FFB1FF",
"@X c #F6A5EF",
"#X c #92CBEC",
"$X c #99D4F5",
"%X c #9AD5F8",
"&X c #9EDCFE",
"*X c #97D2F4",
"=X c #8FC6E5",
"-X c #A0DEFF",
";X c #A2E1FF",
":X c #C3C3C3",
">X c #CCCCCC",
",X c #C7C8C7",
"<X c #D2D3D3",
"1X c #DCDCDC",
"2X c #CFD1D1",
"3X c #FECECE",
"4X c #E1CECE",
"5X c #E3E3E3",
"6X c #ECECEC",
"7X c #FFE7E7",
"8X c #F4F4F4",
"9X c #FFFFFF",
/* pixels */
"                                                9 y t t t y t t y t t y t t y 9                                                 ",
"                                          P I I Y.6X6X6X6X6X6X6X6X6X6X6X6X6X6XY.I I P                                           ",
"                                    P T [ 6X8X8X9X9X9X9X9X9X9X9X9X9X9X9X9X9X9X9X8X8X6X' T P                                     ",
"                                  ) /.9X9X9X9X9X9X9X9X9X9X9X9X9X9X9X9X9X9X9X9X9X9X9X9X9X9X/.)                                   ",
"                              & U.5X9X9X9X9X9X9X9X9X9X9X9X9X9X9X9X9X9X9X9X9X9X9X9X9X9X9X9X9X5XU.&                               ",
"                            y ^.8X9X9X9X9X9X9X9X9X9X9X9X9X9X9X9X9X9X9X9X9X9X9X9X9X9X9X9X9X9X9X8X^.y                             ",
"                          O Y 9X9X9X9X9X9X9X9X9X9X9X9X9X9X9X9X9X9X9X9X9X9X9X9X9X9X9X9X9X9X9X9X9X9XY O                           ",
"                        . _ 1X9X9X9X9X9X9X9X9X9X9X9X9X9X9X9X9X9X9X9X9X9X9X9X9X9X9X9X9X9X9X9X9X9X9X1X_ .                         ",
"                        . ' 9X9X9X9X9X9X9X9X9X5X>X>X2X9X9X9X9X9X9X9X9X9X9X<X>X>X5X9X9X9X9X9X9X9X9X9X' .                         ",
"                        . ' 9X9X9X9X9X5X/././.Y % % & !.6X9X9X9X9X9X9X6X~.& % = Y /././.6X9X9X9X9X9X' .                         ",
"                        . ' 9X9X9X'.~.' X o . . . . . o ^.9X9X9X9X9X9X^.o . . . . . o o ' ~./.9X9X9X' .                         ",
"                        . ' 9X8XW.q . . . X T ' P . . . ^.9X9X9X9X9X9X^.. . . P ' T X . . . 0 W.8X9X' .                         ",
"                        . ' 9X5X& . . . . = ,X9XE.. . . ^.9X9X9X9X9X9X^.. . . E.9X,XO . . . . & 1X9X' .                         ",
"                          y U.8X^.t o X . . U T t . = Y.1X9X<XT T <X9X5XY.O . t T U X . . O t ^.8XU.y                           ",
"                            y 6X9X>X/.U.% % = = o . 9 1X9X9X^.. o ^.8X9X1X9 . o O % % % U./.>X9X6XP                             ",
"                              P 5X9X9X8X<X>X(.^.' P >X8X9XE.9 . . 9 !.9X8X>XP ' ^.(.>X<X8X9X9X5XP                               ",
"                              P 5X9X9X6X1X8X] Y U.5X9X9X9XU.. . . . U.9X9X9X5XY.Y [ 8X1X8X9X9X5XP                               ",
"                            P 6X9X9X9X(.u ^.5X6X9X9X9X9X9X^.P P P P ^.9X9X9X9X8X6X8X6Xy 7.1X9X9X6XP                             ",
"                            U 8X9X/.!._ % T E.~.,X9X9X9X9X9X9X9X9X9X9X9X9X9X9X9X1X~.R.& o Y /.9X9XP                             ",
"                            P 9X9XW.' I 0 1Xy U ] Y.Y.Y.Y.Y.Y.Y.Y.U.Y.Y.Y.Y.Y.Y.U.T X . I { W.9X9XP                             ",
"                            t U.6X9X9X1XY.' % E.<XY.] % T Y.) = ' Y.Y.T & ] Y.u ) ,X& ' 1X9X9X6X] t                             ",
"                      o o o o 9 1X9X9X9X8X!.0 y !.9X6X0 ^.9X/.q 5X9X9X^.u 6X9X) q ' ^.8X9X9X9X1X5 X o o o .                     ",
"                    6 L.P.K.P.H.Q :X8X9X9X9X,X/.T.Y I O E.6X^.& 2X6X6XE.0 2X[ 0 Y :X9X9X9X8X:X/ H.K.K.K.x.$ @                   ",
"                  6 H.{.=X$X;X-XI./ W.1X5X9X9X9X8X>X/.y d I d 9 f I d : - f ).<X5X9X9X5X1XW./ I.&X;X$XH.Z y.r.h                 ",
"                # < z z 6 W [.{.&X=XF.A Q :X>X>X5X9X9X6X5X5X5X4X,.].9.#.=.$.3X5X>X>X:XQ A G.=X-X&X=X( H s.n.v 1                 ",
"              < K f.d.d.N 7 l n H.*X&X#X[.W S S { (./././././.).X.Q.6.......Q.[ S S W [.#X$X;X$XP.L e.v.M.M.f.k .               ",
"            j t.m.M.M.M.n.v.n.s.c c.L.I.&X%X$X$XK.A % Y 9 . o . . . t d = S D P.$X$X%X-X-X{.G.F.n p.m.M.M.M.M.J 8               ",
"          X v p.M.m.M.M.M.M.M.M.v.f a g G.%X&X&X&XI.5 <X!.' ' ' ' ' :X^.6 #X;X;X-X-X%XG.x.m # H f.M.M.a.J v.m.M.y.x             ",
"          X v p.M.M.M.m.J r.M.M.n.l.<.#.+.q.9.` ( D O ) <X9X9X9X9X9X(.I % W ( ( ( ( ( F F F e.M.M.M.u.v J n.n.M.M.s.K #         ",
"        1 J f.M.M.M.M.m.7 c M.M.m.M.h.3.;.;.;.@.i . . . y ~.8X8X8X8X' . . . . . < w.w.v.M.M.M.M.M.M.c h M.M.M.M.M.M.f.1         ",
"      8 y.m.M.M.M.m.M.m.h c M.M.m.M.b.l.*.;.-.;.&.| + . o 0 Y Y Y I & . . X P 5 x M.M.M.M.M.M.M.M.f.x h m.M.M.M.M.M.n.y.j       ",
"    # x M.M.M.M.M.M.M.n.h c M.M.M.M.b.N.l.$.-.;.;.;...- Y.>X>X>X,XI O . . o I q x M.M.M.M.M.M.m.s.k @ j n.M.M.M.M.M.M.M.s.v .   ",
"  . N f.M.M.M.M.M.m.M.M.h k s.n.p.i.i.p.e.- X.:.;.;.&.i Q.7X9X9X9X6X_ . . . & O x m.m.b.M.d.p.t.1 , X j m.m.M.M.M.m.M.M.b.M .   ",
"  . F M.n.M.m.m.M.M.M.n.h . 2 w.k j j h j 8 P 2.;.;.-.&.:.0.3X9X9X9X[ . o & T 0 x M.m.y.t.c O ; 3 y.x h M.m.M.m.M.M.M.m.M.e.2   ",
"  . F b.M.M.M.M.m.M.M.M.h , k c d.n.n.n.n.d.< s ,.;.;.;.;.;.8.9X9X9X' . O y U & x d.w.c : i } $.k.b.c 1 r.n.M.M.M.M.M.M.M.M.u.X ",
"  . F M.M.M.M.M.m.M.v.J b r.M.m.m.m.M.M.M.f.< 9 g 2.;.;.-.;.1._._.7X[ . o u t % x i.# p.5.;.;.$.j.b.u.h , d.M.M.m.M.m.M.M.M.t.. ",
"    h w.n.M.M.M.M.M.d., e.b.M.M.M.M.m.M.M.f.< 9 Y E s =.;.;.;.;.;.8.O.} | O.O. .+.3.} 3.%.;.;.$.j.b.b.e., d.M.M.M.M.M.M.M.M.u.X ",
"      1 v f.M.M.M.M.s., e.M.M.M.M.M.m.M.M.f.2 P T 5 . i @.:.:.;.;.;.;.;.;.;.;.;.;.;.;.;.;.;.<.l.N.m.M.w., d.M.M.m.m.M.M.m.r.h   ",
"          7 p.f.n.M.d.1 w.M.M.M.M.M.M.M.M.m.p.z t y . . o.0.`.>.>.>.-.&.&.:.&.&.&.*.*.*.4.z.h.b.b.m.b.e., d.M.M.M.M.b.d.M 1     ",
"            1 1 M M.s., r.M.M.M.m.M.m.M.M.M.M.k 0 T o . 7.4X1X'.'.'.7.- > E p ; m h.h.h.N.b.b.M.m.b.v.K , d.M.M.M.n.a.j         ",
"              . k b.f., F p.s.M.M.M.M.M.M.M.M.x 9 U o . % 5 & 9 9 5 = . O Y % G v.b.b.b.b.M.M.M.b.s.c @ , s.a.p.p.r.1           ",
"                j u.e.# X @ 2 t.n.M.M.M.M.b.M.x . o . . . . . . . . . . . o . c t.t.t.t.t.t.t.t.r.2 . . # w.8 @ @ @             ",
"                  X X . . . . @ K w.w.w.w.w.w.2 . . . . . . . . . . . . . . . . X . X X . X X . . . . .   X                     ",
"                        . . . . . . . . . . . . . . . . . . . . . . . . . . . . . . . . . . . . . . . .                         ",
"                          . . . . . . . . . . . . . . . . . . . . . . . . . . . o & & . . . . . . . . .                         ",
"                          % % . . & & % . . . . . . . . . . . . . . . . . . . . % u 0 O . . . . . . . .                         ",
"                      . & & o . . q u & . . . . . . . . . . . X . . . . . . . . % t 0 . . . . . . . % & .                       ",
"                      . & & . O 9 0 & o . . . . . . . . . . = & o . . . . . . . % u 0 O . . . . . . & 4 .                       ",
"                      . 5 & . o 0 u * . . . . . . . . . . % 9 O 9 O . . . . . . % u 0 = . . . . . . & 9 .                       ",
"                      . 9 & . . 0 t & . . . . . . . . . . % 9 o 0 O . . . . . . % t u 0 O . . . . . % & O                       ",
"                      = & % X % 0 9 = . . . . . . . . . . * 5 o & % o . . . . . % t u t % . . . . . . = q .                     ",
"                    o 9 = . O 0 u O . . . . . . . . . . = 9 9 . . 9 % . . . . . = t u u = . . . . . . = q o                     ",
"                    . 0 = . O u u O . . . . . . . . . . 9 9 % . . 9 & . . . . . O & 0 t = . . . . . . = q o                     ",
"                    . q = . = u u O . . . . . . . . . . & & .   . 9 % . . . . . . o 0 u = . . . . . . = q .                     ",
"                    . 0 % . = u u = . . . . . . . . . . 9 & .   . 9 & . . . . . . O 0 t % . . . . o . % q .                     ",
"                    X 9 q 5 9 0 q O o O . o . O o . o . & & .   . 5 % o O . O O . = 0 t 0 % O o & 9 5 9 9 o                     ",
"                      o O O o o o & 9 9 5 5 & 9 9 9 9 & %         O % 9 9 9 9 & & 9 0 9 0 9 9 & o O O o O                       ",
"                                  . . . . . . o . . X o               o X . . 0 0 . . . . . . .                                 ",
"                    R V V ! B     Y T T T T 9                               . W./.T T T T T T T       w V V R r                 ",
"                f V.@XOXoXOX}.^ ~ Z.,X9X9X6Xy                               _ ,X9X9X9X9X9X9X1X] % C ~ A.oXoXoXS.^ !             ",
"              ! D.OXoXoXoXoXOXOXOXS.` !.9X8Xt                             = ,X9X9X9X9X9X9X/.` B.V.|.OXOXoXoXoXOXOX.XB.4         ",
"            . C.+XOXOXOXOXOXOXOXOXOX^ 5 T T &                             = I ) ) ) ) ) T _ }.OXOXOXOXOXOXoXOXOXOXoX|.4         ",
"            . V.XXXX X X X X X X.X X}.~ * C.S.C                         4 A.A.A.A.A.A.A.w ! XX X X X X X X X X.XXX}.B           ",
"              w w w w w w w w w w w w w   r f 4                           e e e e e e e   4 w w w w w w w w w w w w             "
};
