/* XPM */
static char *cca69db528614c45f0efe11d08c4d9bc[] = {
/* columns rows colors chars-per-pixel */
"64 64 256 2 ",
"   c #140706",
".  c #190906",
"X  c #1C0B08",
"o  c #200B07",
"O  c #220B07",
"+  c #260A06",
"@  c #2A0B07",
"#  c #280D08",
"$  c #250E0A",
"%  c #23100C",
"&  c #27120E",
"*  c #2A140E",
"=  c #2D140E",
"-  c #2C110C",
";  c #31100A",
":  c #350D08",
">  c #3B0E08",
",  c #400F09",
"<  c #3C140C",
"1  c #39150F",
"2  c #321610",
"3  c #321812",
"4  c #351913",
"5  c #371B14",
"6  c #3B1D15",
"7  c #3D1F16",
"8  c #402117",
"9  c #442117",
"0  c #4B1F15",
"q  c #511F15",
"w  c #551F15",
"e  c #582112",
"r  c #5C2015",
"t  c #5F1D14",
"y  c #602016",
"u  c #642015",
"i  c #6A2114",
"p  c #722314",
"a  c #772516",
"s  c #74271B",
"d  c #6D271C",
"f  c #682C19",
"g  c #652C18",
"h  c #612B1B",
"j  c #612E1F",
"k  c #5F3220",
"l  c #5C3223",
"z  c #5A3020",
"x  c #582B1F",
"c  c #552C1E",
"v  c #522C1F",
"b  c #512C1D",
"n  c #50291B",
"m  c #4D281B",
"M  c #4A271B",
"N  c #48271C",
"B  c #45251B",
"V  c #442319",
"C  c #451F15",
"Z  c #441811",
"A  c #47170F",
"S  c #45140D",
"D  c #4A140C",
"F  c #4E130C",
"G  c #52130C",
"H  c #56150C",
"J  c #59160E",
"K  c #5C130C",
"L  c #61120A",
"P  c #63150C",
"I  c #69170B",
"U  c #6D170C",
"Y  c #71160D",
"T  c #74170D",
"R  c #771A0D",
"E  c #7B2010",
"W  c #801B0D",
"Q  c #87170A",
"!  c #851E0F",
"~  c #862512",
"^  c #8C2111",
"/  c #912211",
"(  c #952210",
")  c #9B2312",
"_  c #A42410",
"`  c #AA2612",
"'  c #A72C15",
"]  c #A12E17",
"[  c #9C2D18",
"{  c #942D17",
"}  c #99351C",
"|  c #9C3921",
" . c #9C3A28",
".. c #953726",
"X. c #913722",
"o. c #8F361D",
"O. c #8D331F",
"+. c #8B2F21",
"@. c #872D21",
"#. c #812D23",
"$. c #7E2F21",
"%. c #7D3320",
"&. c #7B351E",
"*. c #77341E",
"=. c #71331C",
"-. c #6A3220",
";. c #653522",
":. c #623523",
">. c #633724",
",. c #673926",
"<. c #6A3B27",
"1. c #6D3B25",
"2. c #703C26",
"3. c #703E28",
"4. c #713F2A",
"5. c #73402A",
"6. c #74422B",
"7. c #74452D",
"8. c #78452D",
"9. c #7C472C",
"0. c #7D4329",
"q. c #813F24",
"w. c #863F27",
"e. c #894428",
"r. c #88492C",
"t. c #824A2E",
"y. c #824D31",
"u. c #875031",
"i. c #875234",
"p. c #8A5535",
"a. c #905837",
"s. c #945B37",
"d. c #985837",
"f. c #9D5532",
"g. c #A25130",
"h. c #9E4C2C",
"j. c #A14929",
"k. c #AA4729",
"l. c #B04529",
"z. c #AF4622",
"x. c #AB411F",
"c. c #AB3C1F",
"v. c #AA361C",
"b. c #AC341B",
"n. c #B23619",
"m. c #B4391D",
"M. c #B8341A",
"N. c #BC3016",
"B. c #BF2C0F",
"V. c #C53211",
"C. c #CD3315",
"Z. c #D63B16",
"A. c #D34317",
"S. c #CD4518",
"D. c #C6451C",
"F. c #BE4420",
"G. c #BB4422",
"H. c #B94824",
"J. c #BE4928",
"K. c #C54726",
"L. c #C84826",
"P. c #CD4A28",
"I. c #D0532C",
"U. c #CD582E",
"Y. c #C6582D",
"T. c #C15729",
"R. c #B95429",
"E. c #B6552E",
"W. c #B65B35",
"Q. c #B65F37",
"!. c #B15E37",
"~. c #A75C37",
"^. c #A0613A",
"/. c #A3663C",
"(. c #AA6D3E",
"). c #B27241",
"_. c #BB7C44",
"`. c #C78546",
"'. c #CF7F43",
"]. c #D97D3C",
"[. c #E17C3D",
"{. c #E57933",
"}. c #E27131",
"|. c #DE6831",
" X c #D46536",
".X c #CD6634",
"XX c #D1612E",
"oX c #D75E27",
"OX c #D65D21",
"+X c #DA591C",
"@X c #DE531A",
"#X c #E14C1E",
"$X c #E94C1F",
"%X c #EF5222",
"&X c #EF5B23",
"*X c #F06123",
"=X c #F56523",
"-X c #F16923",
";X c #F47025",
":X c #F57524",
">X c #F7752D",
",X c #F57D2A",
"<X c #F08228",
"1X c #F3842B",
"2X c #F8882D",
"3X c #F68D2C",
"4X c #F7912C",
"5X c #F6972C",
"6X c #F6A02D",
"7X c #F8A233",
"8X c #FA9E39",
"9X c #F7993E",
"0X c #F09239",
"qX c #EB893A",
"wX c #EA883E",
"eX c #E88A42",
"rX c #E69144",
"tX c #E6934D",
"yX c #EB9A4D",
"uX c #E79F4D",
"iX c #EAA450",
"pX c #EEA855",
"aX c #F4AC50",
"sX c #F7AA47",
"dX c #F9AF39",
"fX c #FBB53F",
"gX c #FABC41",
"hX c #FBC640",
"jX c #FACD49",
"kX c #FCD64F",
"lX c #FCDB5B",
"zX c #FACF5D",
"xX c #F8C55D",
"cX c #F6BD5E",
"vX c #F4B866",
"bX c #F1BA6E",
"nX c #F3C176",
"mX c #F5CA80",
"MX c #F9D17F",
"NX c #FAD775",
"BX c #FCE371",
"VX c #FDEC76",
"CX c #FCEC85",
"ZX c #FADF8F",
"AX c #FBE493",
"SX c #FCE79A",
"DX c #FCE9A1",
"FX c #FBE4A8",
"GX c #FCECAB",
"HX c #FDEDB3",
"JX c #FDEFB9",
"KX c #FDECC1",
"LX c #FDF2C9",
"PX c #FEF4D1",
"IX c #FEFADF",
"UX c #FEFDE9",
/* pixels */
"# $ O X o & 1 Z S S D w r i E ! #.#.o...j.j. .*.-.q.0.l z k k >.;.;.z k :.;.:.:.<.2.1.*.q.q.%.a a s p d i i u y y u i t H D A , ",
"@ - $ o o # 1 S S S A D G y d *.%.q.e.h.!.R.R.k.e.~.!.a.p.i.k.Y. X|.~.J.m.w.<.,.1.5.5.5.0.O.s i a a p s s i i y r r H F D A S , ",
"@ - # $ % $ ; , S S A 0 w h -.*.q.e.h.!.Q..XU. XY.]..X~.~..X<X0XyX5X<XqX+X) o.p.p.r.r.w. .X.d u @.o.w.q.*.s d y H F D S S S , > ",
"@ @ # $ X X $ : Z Z C M m x g *.q...g.W.Y.U. XoXoX}.Y.~.Y.qXdXcXxXdX{.qX5X|.N.d.~.Q.!.T..Xl.| j.k.j.X.w.q.8.5.1.,.j w 0 0 A < 2 ",
"+ + O $ o X O @ : 5 5 6 8 0 h =.q.e.h.k.E.E.T.XX|.|.T.E.#X3XsXzXzX6X1XoX<X|.OXL.!.Q.W.T. XXXT.Y.T.R.g.e.w.9.8.4.3.,.:.v M 8 5 = ",
"O O O $ o X o % & * * = 4 C r f =.q.e...e.h.g.~.!.T.~.M.@X}.pXlXNXgX1X*XF.R.|.+XS.T.~.!.XXU.H.l.J.l.| O.q.%.6.2.,.:.x m V 6 2 - ",
"o O O O O O O $ % % % & 3 8 m ;.1.2.5.0.*.2.8.u.d.f.k.v.}.}.7XxXgX6X1X-Xn.m.R. X/ K.^.~.T.E.j.} k.X.+.w.&.=.f r w m 0 8 4 = = # ",
". o O O o O $ * & & & = 5 8 M k 1.3.3.0.*.1.=.2.w.f.M.m.}.}.5X[.0X<X@X*X( H.c.|...) j.e.X.%.-.f f h f y r e w C 6 5 6 4 2 = - * ",
". X o O o O # ; 2 2 2 4 6 B b :.1.1.6.9.9.6.q.q...l.A.[..X}.<XA.}.OX[ F.` M.v.}.l.W b.6.2.;.z z z k h x n 0 n 9 6 4 4 3 2 = * - ",
". X o O $ # ; 1 Z A 0 C B n c k 1.1.5.9.u.p.a.f.k.T.$XqXT.{.K.V.@Xl.| ] ) / ] ]. X( m.1.:.z n n x l x q m 0 C 7 6 6 5 4 2 = = - ",
". . o O # = 1 , q w e m v :.,.k ,.<.1.5.8.0.f.~.W..X#XT.H.#Xn.M.@XF.N.I.' ) M.#XqX] A.<.l z v x z k c m m M 8 7 6 6 5 5 4 3 = - ",
"  . . o $ - 2 < A q r r r =.1.k 1.3.4.8.3.2.e.h.k.T.S.] ( / ` B.n.' ( @X@XR.n.A.3Xc.A.q.>.:.:.,.;.:.z x v m V V 8 7 6 5 5 3 = & ",
"    . o $ - = 2 < 0 r f -.&.=.1.3.8.9.t.8.8.e.j.l.T.Z.M.F.W ^ ] ( W T ] Y.zXXXK.3X].A.H.1.1.3.8.6.,.;.:.z m N B 8 8 8 6 4 2 * % ",
"    . X O * = 2 4 8 w f %.O.e.*.,.1.8.9.8.9.w...h.!.@X{.}.^ ) ! I U ^ ^ ].kXdXaX1X-XZ.I.8.3.8.9.9.3.<.<.l v m B V 8 6 5 3 * & % ",
"      X o $ = 3 4 6 N c =.q.w.6.3.;.,.<.1.5.6.8.8.k.OXpX5XZ.B.m.^ [ ` ) .XsXzXxX5X*X$XT.d.p.9.9.9.6.1.<.k v m B V 8 7 5 3 * & % ",
"  . . X o % * 3 4 6 8 M x g ;.k :.:.>.,.<.4.6.5.%.F.U.aXeX+X*X}.T.B.A._ K.1XlXNXcX9X-XW.d.u.t.9.9.t.6.<.:.v m N B V 8 6 4 = $ o ",
". . X X % $ * 3 5 6 8 B M m b c z k :.>.,.1.4.4.M.@X<X6XoXm.{.yXqX@XA.v.qX7XjXCXDXfX;X.Xa.y.y.u.y.9.3.,.z b M B B V 7 6 4 = $ % ",
". X o % % & = 4 6 7 8 B N N b c k :.,.<.1.<.1.*.Z.@X,X1X#XN.0XmXyX<XA.G.1X7XjXBXCXhX1XQ.y.8.9.t.y.6.3.<.l c b m m B 7 5 3 * $ % ",
". X O $ & * 3 4 6 8 V B N m v x :.>.2.6.4.1.3.k.Z.#X*X<XOXD.5XMXMX9X#XS.1X7XBXBXBXhX7X|.h.7.7.9.9.8.6.1.:.z c z b B 7 5 3 * $ % ",
"X o O & = 2 4 6 7 V N M m v x z >.<.1.0.6.4.6.P.+X-XZ.{.XX#XdXkXzX,X:X&X-XgXVXzXjXjX5X&XJ.7.8.8.7.6.5.<.>.k k k v N 8 7 5 = & % ",
"o O $ * 2 3 5 6 V M n v c x l k ,.1.<.8.8.7.a.+X|.5X@X{.oX$X7XgXgX-X3X:X,XjXgX5X5XfX5X$XY.t.9.t.9.9.8.3.<.,.;.:.c M V 8 5 2 * % ",
"O $ & * 2 4 6 8 N n c l k :.>.,.<.4.4.8.t.t.g.$X$X<X&X@XI.#X1X7X3X-X7XgX0X6X9X:X1X3X3X&X+Xp.p.u.y.t.9.5.2.1.<.:.x n N V 6 4 = & ",
"O $ * = 3 5 6 8 N m c k ;.1.1.3.5.8.9.9.u.u.f.$X$X-X$Xm.qX1X4X5X:X*X0XhXyX9XsX,X5X,X4X&X#Xd.a.p.u.t.9.8.6.5.1.>.l c m B 8 6 4 = ",
"O & - 2 4 6 7 V N b c k ,.2.8.8.9.9.t.t.p.p.!.$X*X-XS.' $XgXfX7X-XA.@X7X1X3XgXdXgX6X5X$XS.d.d.a.p.u.t.t.9.8.4.<.:.z v m N 8 5 2 ",
"$ * = 3 6 7 V B m c z >.<.5.0.t.t.y.u.u.p.a.~.$X1X}.L.v.+XNXlXfX-Xm.+X,X1X5XhXgX7XjX5X*XOX^.d.s.s.a.u.u.y.9.6.1.,.k x b m V 6 3 ",
"# = 2 4 7 V M n v z :.<.3.8.t.r.a.a.a.a.s.^.!.A.3X{.@X@X<XhXkXgXsX<X0X<X<X7XgXjXjXkX1X@XXX(.^.^.d.d.d.a.u.t.8.4.1.;.k x v M 8 5 ",
"- = 4 6 9 N n c z k >.1.5.8.t.a.d.d.f.^.^./.(.+X-XqX+X}.dX3XcXjXsX;X*X{.{.{.3X7XhXlX3XS..X).(./.^.^.d.s.p.u.9.7.4.<.>.k x m B 8 ",
"- 2 5 C 0 m b z k >.<.3.7.8.y.a.d.^.^././.(.). X-X<XI.-XfXdXhXjX7X;X$X6X{.{.qX,XhXgX*X|.`._.).(.(./.^.d.a.u.t.9.6.4.<.>.z v m 9 ",
"* 2 7 e w c c l ;.1.4.7.9.y.u.p.d.^./.(.(.)._.'.<X<XP.0XfXjXlXlXdX1X-XsX$X#X-X7XfX<X-X'._._.).)._.).^.d.a.i.y.t.9.6.3.,.k c n N ",
"& * 5 g *.h k k ,.4.8.9.y.i.p.p.d./.(.(.)._._.`.'.rXpXCXAXCXCXkXfXdX-X0X#X-X3X1X{.[.0X].`._.).].pX]./.d.a.p.i.y.t.8.4.<.:.x b M ",
"% % * ; w w x -.<.2.9.u.p.a.a.s.s.^.(.)._.].tX'.`.'.iXzXMXMXlXjXgX7X*XiX#X4X].'.'.rXsXpXuX_.'.]. X X).d.s.a.p.u.t.8.5.1.;.l c n ",
"    . . O @ 2 0 c <.6.a.~.^.f.^.^.p.^.!._.].pXtX'.tX'.'.tXtXvX0X3X&X$XA.<X].'.'. XY.}.]._.e.~...j...~.^.d.a.p.u.t.8.7.3.<.:.z l ",
"        . X $ - 2 9 k 0...X.~.^.a.:.-.&.w.j.W.[.].rXrX`.Y..X].[.eX&XA.uXcXz.'.eXJ.L.U. .w.q.q.$.$.*.~.'.).p.y.u.i.u.u.t.3.;.;.-.",
"        . X O # - 2 7 0 q e f w.-.x z g s #.O. .!.Y.'.Q.E.k.k.'.iX<X@XaXAXd. .k.| J.K.O.$.$.$.%.&.0.Q.eXyXY.d.!.~.~.d.a.0.;.g =.",
"      . . X O $ * = 3 6 A q w r e x x j d a #.+.X.j.Q.!.k.} ../.aX6X<XhXBX(.#.+.X.K.] #.#.#.w.e.e.q.e.T..Xk.X.h.R.X.&.q.*.;.f =.",
"    . X X o % % & - 2 1 Z A q w q e r h d p &.@.O.o.j.j.k.} o.w.aXvX}.gXxXf.@.X.X.G.} o.X.o.e.f.d.5.5.q.%.-.-.-.O.-.h f f g g =.",
"O o o o o O % $ % * = 4 < Z A q w e r y i d s #...O.j.k.Y.R.} X.xXaX{.sXpX`.j.T.U.H.k.o.+.X...W...*.-.*.d f -.f =.g h g -.d *.&.",
"+ + # # + $ $ $ $ # - 2 1 , Z A F w e r t u i a @.+.@.O.l.T.k...bXzX<X6XNX`.O.O.k.O.@.$.$.s s  .%.d f *.&.&.#.#.#.=.=.=.&.&.*.=.",
"+ # @ - ; ; ; = = = 2 2 1 < Z A F G K r y i p s $.@.#.#.@.X.j.@.uXjXgXaXxX`.@.#.@.#.$.s d f h p p d f @.X.o.o.o.@.&.*.=.=.-.g g ",
"+ # @ : : > < < < < 1 1 < < , S F K i p s a @.#.$.@.@.@.+.X...(.aXNXNXxXxX`.j.X.X...$.p i u p +.| } +.} ..+.@.$.d g r e r y e r ",
"@ - : : > < , S A D 0 A A S S D F H u d a a #.#.$.@.X...k.k.l.`.aXZXAXNXlXyX}.Y.Y.T. .+.+...v.G.G.H.c.v.' [ ~ i e q q q e e w F ",
"; : : > , S S A A q w r J H J J H K I a #.@.O.@.@.O.o.} x.k.l._.NXAXSXDXZXcXrXqXqX|.Y.H.m.z.G.H.z.G.K.H.m.b.[ E P K K J J J H G ",
", , , , S S A q w r r t y u u u i p W +.X.X.E.l.| k.x.H. .l.R.'.SXDXJXJXHXvXrXyXqX{.|.J.l.H.G.x.c.z.m.n.n.v._ ) ( ! a p p i i u ",
"D F F F F F F q w r f d s p p s a W { { | ' H.I.U.T.Y. X.XY.bXeXHXLXLXLXHXMX}.{.}.}.XXT.J.G.G.H.F.b.n.m.b.' ] ) / ^ ~ W E a a a ",
"G G H H J K r r e r y i @.X.#.O.O.{ { { | x.H.oX[.tX'.mXbXnXZXiXZXPXPXPXJXBXeX[.eX].[.|.U.U.I.J.G.m.b.b.] ) ( ^ ^ ^ / / ^ ~ ! E ",
"G H H J J t t y u u u u d p a ^ { ] v.v.J.H.T.oX9XsXaXmXnXmXMXmXZXPXPXPXJXBXaXiXpXnXnXeX}.}.oXY.H.z.v.' / ^ ( ^ ^ ^ ^ ^ ~ ! W R ",
"J J J J K t y u i a O.] / W ~ { ' H.Y..X].[.eXqX1X,X4XvXsXcXxXSXFXPXPXJXPXCXNXFXMXFXZXpXnXmX[.]. XY.R.H.v._ ' [ / Q ! E T U U I ",
"I P P P u u u i d a } l.n.] ] b.K.OX[.eXrXpXpXyXS.$X5XcXcXdXNXDXJXLXLXPXIXAXNXGXZXzXxXZXMXyXbXnXbXbXpXyX[. XXXK.H.v.{ ! E R T p ",
"R E R R E W #.@.+.o.| | } c.J.U. X}.{.eXrXyXiXaX+X-XsXgXxXcXAXDXJXJXDXIXIXDXhXNXjXfXMXAXMX9XpXnXbXnXbXpXyXeX}.XXY.H.b.} { { / ^ ",
"! ^ ^ ~ O.{ | k.l.!.E.T..X].[.tXpXaXbXnXnXbXMXzX0X3X5XjXzXzXGXKXHXJXJXIXPXJXlXjXjXjXNXZXxX0XvXmXMXMXnXbXbXpXrX]. X XY.J.m.x.] } ",
"^ ( ) ] ' x.R.Y. X].'.].tXyXpXvXnXnXZXZXAXZXFXvX0X6XsXkXBXDXLXPXKXIXIXUXLXLXDXlXlXNXNXHXNXMXvXZXFXFXZXZXMXmXbXpXyXtX]. X.XT.l.x.",
"/ [ ' m.Y.XX|.eXrXyXpXvXzXzXNXNXZXZXFXFXDXZXFXMX}.1XhXBXAXHXPXPXIXUXUXUXIXPXJXAXNXDXGXSXZXMXtXmXKXHXHXFXAXZXMXnXaXiXeX|..XT.R.l.",
"R ~ ] n.H.L.oX}.{.eX0XyXaXcXxXNXNXzXzXzXNXzXzXcX}.<XjXGXLXLXPXIXIXIXUXIXIXPXLXLXKXKXJXFXNXMXbXvXZXMXMXMXMXMXMXnXpXtX[. XY.R.z.j.",
"I ~ ' n.' _ G.N.b.F.K.K.K.Y. X[.0X0X6XfXgXaX5X6X9X{.gXAXPXLXPXPXKXPXPXPXPXKXLXKXHXmXZXMXZXFXAXaXxXaXaXxXcXvXpXyXeX|.Y.H.x.| +.#.",
"U ~ { v.n.] ) ` ) T W [ b.n.G.L.OX}.qX0X0X6X0XqX1X{.aXMXGXZXFXAXZXFXHXFXFXMXHXFXaX0XeXvXmXZXnXpXyXaXaXvX6XqX}.|.I.F.] Q Y L K K ",
"L T ! ^ ] ] / ( { ) ~ ! / ] n.F.I.|.[.|.}.}.{.{.{.XXiXAXAXmXcXvXaXvXMXnXcXmXFXvXXX|.oXqXpXbXvXpXyX0X0XyXwX}.oXL.M.) ! R P H F F ",
"G K U E W E R Y Y E ^ ( [ ' l.J.T.U.|. XU.L.I.OXXXJ..XpXaXMXpXrXeXyXtXyXpXnXnXU._ v.U.I.{.aX9XqX|.[.eXeX|.XXD.N.b.) ^ T I J G F ",
"> , S D G P I T R E T E W ~ ^ / [ b.n.b.' b.M.b.v.x.l.U.oXeX{.Y.J.T.J.OX[.vX{.( Y ^ H.P.I.].|.{.{.}.I.P.K.F.F.M.' ) W P H D , < ",
"; ; : > , F P T R T T T T R ~ ^ ) ' F.D.M.m.n.` v.] ..] M.H.' / E ] ] v.{ L.L.W U R [ XXL.M.L.OXI.oX|.I.L.G.v./ ^ E J D S , > : ",
"@ @ @ ; : , S F t I R ! ^ W { ' ( / ` ' ' _ b.n.H.{ W ! ^ Y Y E I U Y R P ! ! I U Y ^ ] G.b.K.P.P.OX|.U.J.c.[ ~ I K G S > ; - - ",
"+ + + + # @ ; > S G P U E O.] [ ^ ) n.b.` _ ) ' E.[ ^ U I Y Y U U P Y ^ I U R E ~ { b.P.U.K.K.K.U.Y.Y.E.k.{ W P G D , , : ; @ + ",
"+ + o O O + @ ; : > A P R R T R ! { b.M.M.M.F.m.) ( _ H.J..Xl.' [ / ) m.' / b.n.m.v.G.H.T.G.m.v.v.v.] O.W R U P H D , > : @ # + ",
". O @ - - @ - ; - : , S A F F F J I W / ] M.( E E T W R.k.E.c.) ( ' m.Y.H.Y.]..X XT.m.' ].U.G.H._ ( Q W Y L K K H G D , > : @ # ",
"o O + + + + # # @ ; - ; , w J u T ! [ m..Xl.R L L L I T R E E R R T ! J.F.T..X.Xc..X.X.Xc.m.G.J.XXT.v.{ ! a i I J G S A , : ; # "
};
