/* XPM */
static char *_e452f6efb744091a7024ecedaf4a164[] = {
/* columns rows colors chars-per-pixel */
"64 64 189 2 ",
"   c #020201",
".  c #090907",
"X  c #0A0A0B",
"o  c #11110D",
"O  c #070E14",
"+  c #0C141A",
"@  c #141514",
"#  c #1A1A16",
"$  c #171A1D",
"%  c #1B1C1B",
"&  c #161719",
"*  c #1E201F",
"=  c #23221F",
"-  c #0D1720",
";  c #171F24",
":  c #1B1E22",
">  c #1E282E",
",  c #1B2225",
"<  c #1E2F37",
"1  c #252423",
"2  c #272823",
"3  c #2A2A25",
"4  c #22262B",
"5  c #252B2E",
"6  c #2C2C2B",
"7  c #2F302C",
"8  c #33342E",
"9  c #242B33",
"0  c #2A2E31",
"q  c #2E3235",
"w  c #2E363D",
"e  c #343434",
"r  c #373832",
"t  c #393936",
"y  c #33373B",
"u  c #3C3C3B",
"i  c #41413F",
"p  c #2B3D47",
"a  c #303B42",
"s  c #393E41",
"d  c #3B454C",
"f  c #3C484F",
"g  c #3C4147",
"h  c #3D4A54",
"j  c #444443",
"k  c #494A46",
"l  c #42464A",
"z  c #444A4E",
"x  c #4C4C4C",
"c  c #50504E",
"v  c #434C52",
"b  c #494E51",
"n  c #4C5255",
"m  c #4C535A",
"M  c #465157",
"N  c #565655",
"B  c #5A5957",
"V  c #525659",
"C  c #54595D",
"Z  c #5B5B5B",
"A  c #4E5760",
"S  c #4C5A61",
"D  c #5C5F61",
"F  c #515F68",
"G  c #525B60",
"H  c #5D666A",
"J  c #5F686F",
"K  c #5F6267",
"L  c #5E6A73",
"P  c #5B6775",
"I  c #626262",
"U  c #61666A",
"Y  c #6B6B6C",
"T  c #71716F",
"R  c #656C72",
"E  c #666E76",
"W  c #6C7073",
"Q  c #66727B",
"!  c #6A737C",
"~  c #767575",
"^  c #757678",
"/  c #73797D",
"(  c #7B7C7C",
")  c #797874",
"_  c #807F7D",
"`  c #7E807F",
"'  c #6A7982",
"]  c #777B80",
"[  c #7B8185",
"{  c #7A858D",
"}  c #748391",
"|  c #848485",
" . c #888886",
".. c #84888D",
"X. c #8B8C8B",
"o. c #82878B",
"O. c #838E93",
"+. c #8B8F91",
"@. c #818D9B",
"#. c #8B959C",
"$. c #8D9393",
"%. c #939393",
"&. c #929599",
"*. c #969A9E",
"=. c #9C9C9C",
"-. c #8C9BA5",
";. c #959FA2",
":. c #999DA0",
">. c #91A0A7",
",. c #93A2AB",
"<. c #99A5AA",
"1. c #9DA2A5",
"2. c #97A9B3",
"3. c #9DACB5",
"4. c #97ACB5",
"5. c #9EB0BA",
"6. c #A4A4A4",
"7. c #A6A8A7",
"8. c #A5A9AC",
"9. c #ADADAD",
"0. c #A9A9A7",
"q. c #B0B0AE",
"w. c #ACAEB1",
"e. c #A6AFB4",
"r. c #AFB3B5",
"t. c #A5B5BD",
"y. c #AAB5BD",
"u. c #A7B1B3",
"i. c #B4B4B4",
"p. c #B4B6B9",
"a. c #BCBCBC",
"s. c #B5BBBB",
"d. c #9DB3C1",
"f. c #A5B5C1",
"g. c #A4B9C5",
"h. c #ACBEC7",
"j. c #A7BDCA",
"k. c #B0BEC7",
"l. c #BCBDC0",
"z. c #ADC2CE",
"x. c #BCC1C3",
"c. c #B1C2CB",
"v. c #BCC4CA",
"b. c #BCCBD4",
"n. c #B6CAD5",
"m. c #BFD1DD",
"M. c #C4C4C3",
"N. c #C0C5C9",
"B. c #C5CBCD",
"V. c #CBCCCB",
"C. c #C9C9C7",
"Z. c #C2CDD4",
"A. c #CFCFD1",
"S. c #C4D3DD",
"D. c #CAD2D7",
"F. c #D5D5D5",
"G. c #D8D8D6",
"H. c #D4D6D9",
"J. c #D9D7D8",
"K. c #D6D9DA",
"L. c #DCDCDC",
"P. c #E0DFDD",
"I. c #DEE0DF",
"U. c #CDDAE2",
"Y. c #DEDEE0",
"T. c #D2DBE0",
"R. c #E1DFE0",
"E. c #DEE2E4",
"W. c #DAE3E9",
"Q. c #E4E4E4",
"!. c #E8E6E7",
"~. c #E8E8E6",
"^. c #E4E7E9",
"/. c #E9E7E8",
"(. c #E5EAEC",
"). c #ECECEC",
"_. c #F1F1EF",
"`. c #E4EDF1",
"'. c #ECEFF1",
"]. c #F1EFF2",
"[. c #EEF1F2",
"{. c #EBF2F8",
"}. c #F2F2F2",
"|. c #F8F7F5",
" X c #F6F8F7",
".X c #F6F7F9",
"XX c #F7F9F8",
"oX c #FDFDFD",
"OX c #F9F9F7",
/* pixels */
"oX}.J.OXOXJ.}.oXL.).oXQ.E.oX).J.oX[.K.XXoXJ.}.oXL./.oXQ.Q.oX).K.oX}.J.XXoXJ.|.oXJ.).oXE.Q.oX).J.oX}.H.OXOXJ.}.oXL.).oXQ.E.oX).J.",
"oX}.Y.OXOXL.}.oXY.).oX!.!.oX).Q.oX_.I. X|.E.[.oXQ.).oXQ.!.oX).L.oX}.L..X XL.}.oXQ.).oX!.!.oX).Q.oX}.R.OX|.L.}.oXY.).oX!.!.oX).I.",
"J.).oXQ.Q.oX).K.oX}.K.OXOXG.}.oXJ.).oXQ.Q.oX/.L.oX}.H.XXOXJ.|.oXL.).oXQ.Q.oX).J.oX}.H.OXOXG.}.oXJ.).oXQ.Q.oX).L.oX}.J.OXXXJ.}.oX",
"E.).oX!.!.oX).Q.OX}.Q.|.|.E.}.OXQ.).oX/.!.oX).Q.XX_.Q. XOXL.}.XX!.).OX/./.oX).Q.OX_.Q.|.|.Q.'.OXQ.).oX!.).XX).Q.OX}.Q..X XR.}.oX",
"oX}.G.OXOXH.}.oXJ.).oXE.Q.oX).J.oX}.H.OXOXG.}.oXL.).oXQ.I.oX~.J.oX}.H.OXOXH.}.oXJ.).oXE.Q.oX).J.oX}.G..XOXH.}.oXJ.).oXR.Q.oX).J.",
"OX_.Q.|.}.Q.}.OX!.).OX/.^.OX).!.OX).Q.}.}.Q.}.OX!.)..X/.).OX).!.OX).!.|.}.Q.}.OX!.).OX/.^.OX).!.|.[.Q.|.|.Q.}..X!.).OX~.~.OX).Q.",
"G.).oXY.R.oX/.K.oX}.G..X.XG.}.oXJ.).oXL.Y.oX).J.oX}.G.OXOXG.[.oXJ.).oXE.L.oX/.H.oX[.G..XOXG.}.oXJ.).oXL.L.oX/.H.oX}.F. X.XF.}.oX",
"^.).|.).).|.)./.|._.!.}.}.!.'.|.).)..X).).OX).~.}.[.!.}.}.!.).}.!.).|.).).|.).).|.[.!.}.}.!.[.|./.). X).).|.)./.|.[.!.}.}.).[.|.",
"oX].G.OX XF.}.oXH.!.oXQ.L.oX).H.oX}.G.OXOXF.}.oXK.^.oXL.Q.oX_.).oX}.H.OXOXG.'.oXJ.).oXL.R.oX/.J.oX].F.OX XF.}.oXG.^.oXQ.L.oX).G.",
"}.'.).}._.).].}.).).}.).).}.).).}.).).'.'.).'.}.).).OXoXQ.V.9.=.a.V.!.oXOX).].}.).).|.).).}.).).}.).).}.}.).}.}.).).}.).).|.).^.",
"G.!.oXL.L.oX^.G.oX}.G.OXOXG.}.oXJ.).oXP.L.oX~.G.oXoXp.N e e k x j e t x 9.oX!.G.oX}.F..XOXF.}.oXG.^.oXQ.L.oX/.H.oX}.F.OXOXG.].oX",
").)._.].).}.}.).}.).).).'.)._._.).).}.'._.].].).oX7.1  .F.).}.}.}.^.V.%.6 ~ oX).}.).[.).'._.).'._.).)._.).}.).}.'._.).).'.)._.).",
"oX}.F. XOXG.}.oXH.~.oXL.L.oX).G.oX}.G.OX XF.).oXi.1 A.oX).Q.Q.Q.!.Q.). X[.u =.oXG.!.oXL.E.oX!.G.oX}.F. XOXG.'.oXG.!.oXY.L.oX).G.",
").}.}.).).}.).).}.].).'.].)._.'.).[.'.).).}.}.[.q >..XY.Q.Q.Q.Q.Q.!.Q.I.).A.u ).}.).).}.}.)._.}.).].}.).).}.).).'.].).'.}.).).).",
"F.).oXL.L.oX!.G.oX}.F.OXOXG.].oXJ./.oXY.L.oX.X[ v W.^.Q.Q.~.Q.Q.Q.!.Q.Q.Q. XY X.oX).G..XOXG.'.oXJ.~.oXL.L.oX!.G.oX}.F.OXOXG.}.oX",
"}.).).}.}.).).}.).).}.).).}.).).}.).).}.}.).}.l -.m.(.Q.Q.Q.).).Q.Q.Q.!.Q.).p.N |.).}.).).}.).).}.).).}.}.).).}.).).}.).).}.).).",
"oX}.G..XOXG.[.oXH.!.oXE.P.oX!.H.oX}.F..X|.E.l.v z.c./.Q.Q.).M.V.).Q.Q.Q.!.).).c x.).oXY.Q.oX).H.oX}.G.|..XG.'.oXJ.).oXE.L.oX).G.",
"!.)..X/.)..X).!.|.].!.}.}.!.}.|.!.).|.).!.oX$.H c.f.(.Q.}. .@ % 0._.Q.Q.Q.c I Y 6.oXQ.}.}.!.).|.).)..X^.).OX).!.|._.Q.}.|.!.'.|.",
"G./.oXY.Q.oX/.J.oX}.G.OXOXH.}.oXJ.).oXI.L.oX] ' z.<.!.).A.% 8 2 e Q.Q.}.%.o 1 j  .oXF.|.OXG.}.oXJ.~.oXR.Y.oX).J.oX[.G.OXOXG.'.oX",
"OX}.Q.|.}.Q.}.XXQ.).oX~./.XX).!.XX}.Q.|.}..XE ] z.,.^.}.6.7 k 8 2 C.).}.Y 6 7 i I |..X!.!.oX).!.OX[.Q.|.|.Q.[.OXQ.).oX!.^.oX).Q.",
"oX}.G..XOXH.}.oXJ.).oXQ.Q.oX).L.oX}.G.OX.X(.S O.h.,.(.].6.u I j = C.).}.T k 6 B N Q.oXQ.Q.oX).K.oX}.J.OXoXH.}.oXJ.).oXQ.Q.oX).J.",
"Q.).oX!.!.oX).Q.oX}.I. X|.L.}.oX!.).oXQ.!.oXM >.f.<.(.^.F.e B j u ~.Q.}.X.u 6 | I G.Q.|.OXL.}.OXQ.).oX!./.oX).Q.XX}.I..X|.L.}.oX",
"J.).oX!.!.oX).J.oX}.J..XOXJ.}.oXL.).oXQ.Q.{.d t.5.3.'.R.].=.0 t a.).Q.!.K.k u !.Z C.Q..XOXJ.}.oXL.).oXQ.Q.oX).L.oX|.J.oXOXL.}.oX",
"oX}.L.OX XL.}.oXE.).oX!.!.oX).L.oX}.L. XoXs.d n.,.y.'.Q.!.}.F.L.).Q.!.!.).!.L.OXN l.oXE.!.oX).E.oX}.L.OXOXL.}.oXL.).oXQ.!.oX).L.",
"oX}.L.OX.XL.}.oXL.).oXQ.!.oX).Q.oX}.L.|.oX+.S m.-.v.'.Q.R.L.).!.L.L.L.Y.L.Q.!.}.Z p.oXQ.!.oX).L.oX}.L.OXOXL.}.oXY.).oX!.Q.oX).L.",
"L.).oXQ.Q.oX).L.oX|.K.OXXXH.}.oXL.).oXE.[.H } n.#.D.).!.c 6 a.B e u u t 6 t T x I p.~.|.OXJ.|.oXL.).oXQ.Q.oX).L.oX}.J.OXOXK.|.oX",
"E.).oX/.!.oX).Q.OX}.R..X|.Y.}.oXQ.).oX).K.d d.z.>.E.Q.).B s g j B N B x 3 2 . c I a.).}..XQ.).XXQ.).oX!.!.oX).Q.oX}.L.|.OXP.}.oX",
"oX}.J.OXOXG.}.oXJ.).oXQ.Q.oX/.L.oX[.F.oX#.S n.4.u.).Q.}.| j 8 k Z N Z x 7 e . ) I M.oXR.Q.oX).J.oX}.H.oXOXH.}.oXL.).oXQ.Q.oX).H.",
"XX}.Q.|.}.Q.[.OX!.).OX).!.OX).Q.OX[.!.'.a ,.z.2.B.~.Q.~.V.e Z N N N B i 6 r # q.N K.oX^.^.OX).!.OX[.Q.}.|.Q.'.OXQ.).oX).!.OX).Q.",
"G.).oXY.Q.oX).J.oX}.G.OXOXH.}.oXJ.Q.oXU S n.d.5.E.Q.Q.Q.}. .6 Z D Z B t t # B A.N |.G.OXOXG.}.oXJ.).oXQ.R.oX/.J.oX[.F.OXOXH.}.oX",
"!.).|./.).|.).!.|.).!.}.}.!.[.|.Q.oX:.w b.4.d.g.D.(.^.Q.Q._.| 6 t x t = @ r Q.6.T oXE.|.}.!._..X!.).|.).).|.).^.|.'.!.}.}.!.}.|.",
"oX[.G.OX.XG.'.oXH.).oXE.R.oX!.J.oX=.: O.h p j.g.S.W.Q.^.Q.Q.}.M.( B k c  .P.oXI %.|.oXL.Q.oX^.J.oX'.G..XOXG.}.oXJ.~.oXL.Y.oX^.G.",
"|.).).}.[.).[.|.).).|.).).}.).}.X.  * b , ' U.-.4.b.^.^.).Q.E.).OX'.}.}.}.'.H.l Q.}.}.).).}.).).}._.^.}.}.).'.}.).).}.).).}.).).",
"G./.oXL.L.oX!.J.oX'.F.OXOXF.}.oXC.V.oXa.a { d < 5.U.[.^.F.^.Q.(.Q.).9.A.Q..X^ Y oX'.G.OXOXF.}.oXG.!.oXL.L.oX!.G.oX}.F.OXOXF.].oX",
").).'.).).}.).).}.'.).}.'.).).}._. X6.X @ v > L D.`.B./ r.E.`.A.E.k./ Z.{.N.q !.oX).).}.'.).].).).).).).).}.}.).}.).)._.}.).).}.",
"oX'.F.OXOXG.}.oXG.~.oXL.P.oX^.G.oXG.I $.F.B.a f.b.<.#./ <.(.K.$.v.;.3.D.`.v | M.=.).oXL.Y.oX!.Q.oX X~.oX|.F.}.oXG.!.oXE.L.oX^.G.",
").[.)._.).}.).).].).].)._.).).}.)._.oXoXoXz ' z.4.c.#.v y.>./ b.-.Q g.S.{ s ..%.| I p.[. XoXoXq.) %.~ _ }._.).).]._.).}.}.).}.).",
"J./.oXL.L.oX~.J.oX}.G.OX.XF.}.oXG.~.oX}.( d S.z.-.h + f L M S J + F m.>.4 :.W 9.n 3 I q.R.%.T o . & % 2 P.oX!.J.oX'.G.OXOXF.}.oX",
"}.].).}.].).'.}.).).}.).).}.).).}.).OXp.4 *.Q w 5 *.#.m C `.`.*.+ O.t., N.V.9 C m K | = 3 o # @ 0 X u M.].~._.}.).).}.).).}.).).",
"oX'.G.OXOXF.}.oXG.).oXY.Y.oX!.G.oX|.M.% : q V r.L.oXU R R `.Q.oX8.W 4 $.F.D ' ] +.N k # u ) 6   0 @ 4 }.oXF.].oXJ.!.oXI.E.oX/.G.",
"~.).|.).^.|.)./.|.[.!.}.}.!.[.|.^.].).V.A.}.oX.XoXV.y C L (.E.).U   6 i @   X.+.l.7.7.=.oXoXD $ l V 4 V.]..X'./.|.[.Q.}.}.^.].|.",
"G.).oXY.R.oX/.J.oX[.G..X XF.}.oXJ.~.oXQ.Q.oX!.F.oX~ % 0 m U.E.[.D @ = 3 B X.Y k ~ k Z Q.oX!.( $ f ! y p./.oX/.K.oX}.G.OXOXH.}.oX",
"OX}.Q..X|.!.}..X!.)..X!.~.OX).!.OX_.Q.|.}.Q.[..X!.F.oXD O e.(.oX| I M.~.oXOXV.a.=.V.].).R.oX&.+ v ,.z V.oXQ.}.OX!.).OX!.).OX).!.",
"oX}.G.OX.XH.}.oXJ.).oXQ.Q.oX).J.oX}.G.OXOXG.}.oXL.).oX&.D H o.8.Y %.}.|.|.F.'.oX).}.oXY.L.oX:.4 ' f.v H.oXG.}.oXJ.).oXQ.Y.oX^.G.",
"E.).oX!.!.oX).Q.OX}.Q.|.|.Q.}.XXE.).oX!.^.oX).Q.XX[.I.XXoXY.w.^ x G.oX!.!.oX(.R.|.).Q.|.[.}...y ' ] s U.).OX'.R.OX'.E.|.|.E._.OX",
"J.).oXQ.E.oX~.J.oX}.H.OXOXJ.}.oXK./.oXQ.Q.oX).J.oX}.H.XXOXK..XoXE.).oXQ.Q.oX).L.oX}.J.OX|.).W 9 ' P M ^.Q.oX/.Y.oX}.G.OXOXJ.}.oX",
"oX}.L.OXOXL.}.oXQ.).oXQ.Q.oX).L.oX}.Y.OXOXL.}.oXQ.).oXQ.!.oX).L.oX_.L.OX.XL.}.oXQ.).oXQ.Q.oXz 4 ' E K oX|.L.}.oXQ.).oX!.!.oX).L.",
"oX}.L.OXOXL.}.oXL.).oXQ.!.oX).I.oX}.L.OXOXL.}.oXY.).oXQ.Q.oX).L.oX}.J.OXOXL.}.oXL.).oXQ.^.Q.: M f.A :.oX XJ.}.oXL.).oXQ.Q.oX).L.",
"L.).oX!.Q.oX).L.oX}.L.OXOXL.}.oXL.).oXQ.Q.oX).L.oX}.J.OXOXL.}.oXI.~.oXQ.!.oX).K.oX}.L.}.oX] 9 #.@.g oXR.Q.oX).L.oX}.J.OXoXL.}.oX",
"L.).oX!.!.oX).E.oX}.L.|..XY.}.oXQ.).oX!.!.oX).Q.oX}.L.OXOXL.}.oXR.).oX!.!.oX).Q.oX}.L.oX/.5 M { : 8.oXR.!.oX).Y.oX}.L.|..XL._.oX",
"oX}.H.XXOXJ.|.oXL.).oXQ.Q.oX).L.oX}.H.OXOXJ.}.oXL./.oX!.Q.oX~.L.oX}.G.OXOXH.|.oXL.).oXOXI & R ; W oXJ.oXOXH.}.oXL.).oXQ.Q.oX).L.",
"OX}.Q.OX|.Y.[.XXQ.).oX!.!.XX).Q.OX].Q.|..XQ.}.XXQ.).oX!.~.oX).Q.oX}.Q..X|.Q.}.OXQ.!.oX%.X z : C oX].R..X|.Q.}.OXQ.).oX!.^.oX).R.",
"J.).oXQ.Q.oX/.J.oX}.G..XOXG.'.oXH.).oXI.L.XXJ.V./.H.l.I.L.a.G.Q.M.F.}.G.J.oX).J.oXoX6.X & $ | oXJ./.oXQ.R.oX/.J.oX}.J.OXoXG.}.oX",
"Q.)..X/.).OX).!.OX[.Q.|.|.Q.}.OX!.).|.A.M.M.i.6.i.9.6.q.q.6.9.q.6.9.a.q.p.F.L.~.}.(   @ B x.oX|.!.).OX^.).OX).!.OX[.Q.}.}.Q.}.OX",
"oX}.G.OX.XF.[.oXJ.).oXY.Y.oX^.J.oX}.V.G.a.%.6.i.%.=.q.%.%.q.=.%.9.6.X.i.p.6.L.oX .Z 6.V.).oX!.G.oX].F.OXOXG.].oXJ./.oXL.E.oX~.G.",
"|.[.!.}.}.!.).|.^.).|.).).|.).).|.[.!.).L.V.V.M.a.a.l.p.p.a.a.p.M.M.l.V.F.F.).}.).oXoX'.!.}.).)..X].!._.}.^.]..X/.).|.).).|.).!.",
"G.).oXY.Q.oX).J.oX}.G.OXOXF.'.oXJ.).oXQ.L.oX!.F.oX).V._.).V.^.OXF.Q.oXL.Q.oX).J.oX_.V.OXOXH.'.oXJ.!.oXY.P.oX/.J.oX}.F.OXOXF.'.oX",
"/.).|.).).}.).).}._.).}.].).}.}.).).}.).).|.].).}.).).}.}.).}.}.).).|.).).}.).).}.[.).}.}.).}.}.).].}.).).}._.).}.}.).}.}.).].}.",
"oX[.G..XOXF.}.oXG.~.oXL.L.oX!.G.oX}.G.OXOXG.'.oXH.~.oXQ.P.oX!.G.oX}.F.OXOXG.[.oXJ.).oXP.L.oX).J.oX}.G.OXOXF.'.oXJ.).oXP.P.oX!.G.",
"_.'.).}.).).).).).'.].).}._.'.).'.).)._.'.)._.)._.)._.'.).}.}.).)._.).).).).).].).).}.).).}.).).}.).).'.].).}.).).).).'.'.'.).).",
"G.!.oXL.L.oX).G.oX'.G.OXOXF.'.oXG.!.oXL.L.oX^.G.oX}.F.OXOXG.'.oXG.!.oXL.Y.oX).G.oX}.G. X.XF.}.oXG.).oXL.L.oX).G.oX].G.OXOXG.'.oX",
").].).}.'.)._.].).).}.).).}._.).].].).[.}.)._.}.).).}.).).}.).).'.].).].}.).'.).).).].).).}.).).[.).).}.'.).).}.).).}.).).}._.).",
"oX'.G..XOXG.}.oXJ.).oXL.P.oX/.J.oX}.G.OXOXG.}.oXJ.^.oXR.L.oX).J.oX}.G.OXOXG.}.oXH.).oXL.I.oX^.G.oX_.G..X.XG.}.oXJ.).oXL.P.oX~.G.",
").).|.).).}.).).}.'.).}.}.).'.}./.'.}.).).}.).).}.).).}.}.).).}.).).}.).).}.).).|.).).}.}.).}.}.).).}.).).|.).).}.).).}.}.).).}."
};
