/* XPM */
static char *_78b63ff1af945fffb0b1b000bb8365a[] = {
/* columns rows colors chars-per-pixel */
"64 64 78 1 ",
"  c None",
". c black",
"X c #080000",
"o c #1B0500",
"O c #260D00",
"+ c #2D1300",
"@ c #331700",
"# c #361A00",
"$ c #391C00",
"% c #3F2101",
"& c #422402",
"* c #472904",
"= c #4C2D05",
"- c #4F3106",
"; c #523207",
": c #55360A",
"> c #57380A",
", c #5C3C0E",
"< c #5F3F10",
"1 c #603F10",
"2 c #634212",
"3 c #684715",
"4 c #674814",
"5 c #694916",
"6 c #6C4C18",
"7 c #73531E",
"8 c #775621",
"9 c #7B5B24",
"0 c #7F5F28",
"q c #7F6029",
"w c #83632C",
"e c #876830",
"r c #8C6D35",
"t c #8E7037",
"y c #8F7138",
"u c #93753C",
"i c #96783F",
"p c #977941",
"a c #9A7D44",
"s c #9C8047",
"d c #9E8249",
"f c #A2864D",
"g c #A58A52",
"h c #A98E56",
"j c #AA8F58",
"k c #AC935C",
"l c #AF9660",
"z c #B09761",
"x c #B29A64",
"c c #B69E69",
"v c #B9A26E",
"b c #BCA572",
"n c #BEA876",
"m c #C2AD7C",
"M c #C5B181",
"N c #C9B587",
"B c #CAB789",
"V c #CCBA8D",
"C c #CEBD91",
"Z c #D0BF94",
"A c #D1C196",
"S c #D4C49B",
"D c #D6C7A0",
"F c #D7C8A1",
"G c #D9CBA5",
"H c #DBCEAA",
"J c #DED1AE",
"K c #DFD3B1",
"L c #E1D5B4",
"P c #E4DABA",
"I c #E7DDC1",
"U c #EAE1C6",
"Y c #ECE4CB",
"T c #EEE7D1",
"R c #F3EEDB",
"E c #F7F3E3",
"W c #F8F4E6",
"Q c #FCF9EE",
/* pixels */
"                                                                ",
"                                                                ",
"                                                                ",
"                                                                ",
"                                                                ",
"                                                                ",
"                                                                ",
"                                                                ",
"                                                                ",
"                          ......                                ",
"                        ..uerrir..                              ",
"                      .wbmZCZSCfer=.                            ",
"                     .cHHSSSFFAgjkg1.                           ",
"                    .rIPHDFFSSCCAggh$.                          ",
"                    6MRUJHLPLGSSAsak..                          ",
"                   .bS..UY..kKHSAbfge%.                         ",
"                   .N...RW...hJGSShdz,.                         ",
"                   .B...EQ....uLDSjak2.                         ",
"                   .n...RW....iIHGkak;.                         ",
"                ....cAbSWEGbmvxzfgafk5.                         ",
"              .3BFSSVHT...LYKu.....wgku.                        ",
"              .FHGHGgbI...JZ3.MSSZ=.9zu.                        ",
"             .dHFSAcecHHLLc.wSSSSSSawky.                        ",
"             .FHSSzt9xDSFHe.SGSSVZSGzgt.                        ",
"             .GLHxprwxSZSDu...bSCCZSkfr.                        ",
"             .VABapprcSBNZB0.O.mZVAAgsw.                        ",
"              ....2uivSkfCFv.:.aCAAVVvw.                        ",
"               .0f.>avSgiCSFp.9.wBSSFvf6.                       ",
"                .8.2fbShpZSBw.2r.dGmCvg5.                       ",
"                 @.6fbGkpZSMaw.w.gHgbvg3.                       ",
"                  .7gvGkaASMip>..kLkagh3.                       ",
"                  .7fbFkaZSmtaf2.aGkrifd,.                      ",
"                  .7gbDzsZAmeufgw.kzuifx9.                      ",
"                  .8hmHxpmAVvuaff5nAfuaz2.                      ",
"                  .wkvFbwfZSNupsdpCHgudj0.                      ",
"                  .5dhSNakJGBuuiaicSndpgkw.                     ",
"                   .wpae>5cJZfaiapixSvudky..                    ",
"                   .O:&@@..ezgfaaapumVldgkg.                    ",
"                   ..0vcbw.:.gjgffdagzlghkzi.                   ",
"                    ..*+o..&wzxkkjhhgggkzzcz.                   ",
"                       ..w;.3<-**ifffgfffgkk0.                  ",
"                        .$..     ...........X.+                 ",
"                                                                ",
"                                                                ",
"                                                                ",
"                                                                ",
"                                                                ",
"                                                                ",
"                           3222222222222;                       ",
"                      >,>>>221,<,1,,,,<2>:>,,                   ",
"                    >532222<,>>,,>>,,,,<1222352                 ",
"                     833222,,<<>,,,,,,,,1223378                 ",
"                       42132221222112<221523                    ",
"                           6656625666623                        ",
"                                                                ",
"                                                                ",
"                                                                ",
"                                                                ",
"                                                                ",
"                                                                ",
"                                                                ",
"                                                                ",
"                                                                ",
"                                                                "
};
